<svg width="3646" height="2184" xmlns="http://www.w3.org/2000/svg" xmlns:xlink="http://www.w3.org/1999/xlink" xml:space="preserve" overflow="hidden"><defs><linearGradient x1="1903.44" y1="1471.22" x2="1903.44" y2="2728.48" gradientUnits="userSpaceOnUse" spreadMethod="reflect" id="fill0"><stop offset="0" stop-color="#F6A9A5"/><stop offset="0.5" stop-color="#F39A96"/><stop offset="1" stop-color="#F58782"/></linearGradient><linearGradient x1="2473.45" y1="1471.22" x2="2473.45" y2="2742.14" gradientUnits="userSpaceOnUse" spreadMethod="reflect" id="fill1"><stop offset="0" stop-color="#AAC2FB"/><stop offset="0.5" stop-color="#9BB6F9"/><stop offset="1" stop-color="#88AAFD"/></linearGradient><linearGradient x1="1744.59" y1="1153.5" x2="1744.59" y2="3039.39" gradientUnits="userSpaceOnUse" spreadMethod="reflect" id="fill2"><stop offset="0" stop-color="#F6A9A5"/><stop offset="0.5" stop-color="#F39A96"/><stop offset="1" stop-color="#F58782"/></linearGradient><linearGradient x1="2599.58" y1="1153.5" x2="2599.58" y2="3059.84" gradientUnits="userSpaceOnUse" spreadMethod="reflect" id="fill3"><stop offset="0" stop-color="#AAC2FB"/><stop offset="0.5" stop-color="#9BB6F9"/><stop offset="1" stop-color="#88AAFD"/></linearGradient><clipPath id="clip4"><path d="M2021.73 2037.75 3378.58 2179.04 3368.66 2274.3 2011.82 2133.01Z" fill-rule="evenodd" clip-rule="evenodd"/></clipPath><clipPath id="clip5"><path d="M2021.73 2037.75 3378.58 2179.04 3368.66 2274.3 2011.82 2133.01Z" fill-rule="evenodd" clip-rule="evenodd"/></clipPath><clipPath id="clip6"><path d="M2286.15 2129.28 3411.54 3058.8 3381.04 3095.73 2255.65 2166.2Z" fill-rule="evenodd" clip-rule="evenodd"/></clipPath><clipPath id="clip7"><path d="M2286.15 2129.28 3411.54 3058.8 3381.04 3095.73 2255.65 2166.2Z" fill-rule="evenodd" clip-rule="evenodd"/></clipPath><clipPath id="clip8"><path d="M2286.15 2129.28 3411.54 3058.8 3381.04 3095.73 2255.65 2166.2Z" fill-rule="evenodd" clip-rule="evenodd"/></clipPath><clipPath id="clip9"><path d="M2266.83 2311.8 2389.36 3476.42 2341.73 3481.43 2219.21 2316.81Z" fill-rule="evenodd" clip-rule="evenodd"/></clipPath><clipPath id="clip10"><path d="M2266.83 2311.8 2389.36 3476.42 2341.73 3481.43 2219.21 2316.81Z" fill-rule="evenodd" clip-rule="evenodd"/></clipPath><clipPath id="clip11"><path d="M2266.83 2311.8 2389.36 3476.42 2341.73 3481.43 2219.21 2316.81Z" fill-rule="evenodd" clip-rule="evenodd"/></clipPath><clipPath id="clip12"><path d="M2061.98 2217.92 3528.37 896.285 3560.43 931.857 2094.04 2253.49Z" fill-rule="evenodd" clip-rule="evenodd"/></clipPath><clipPath id="clip13"><path d="M906.08 1921.58 2598.15 2097.77 2588.23 2193.04 896.161 2016.85Z" fill-rule="evenodd" clip-rule="evenodd"/></clipPath><clipPath id="clip14"><path d="M906.08 1921.58 2598.15 2097.77 2588.23 2193.04 896.161 2016.85Z" fill-rule="evenodd" clip-rule="evenodd"/></clipPath><clipPath id="clip15"><path d="M817.334 2781.05 2170.78 2078.86 2214.89 2163.88 861.442 2866.07Z" fill-rule="evenodd" clip-rule="evenodd"/></clipPath><clipPath id="clip16"><path d="M817.334 2781.05 2170.78 2078.86 2214.89 2163.88 861.441 2866.07Z" fill-rule="evenodd" clip-rule="evenodd"/></clipPath><clipPath id="clip17"><path d="M978.024 730.887 2438.56 2265.62 2369.17 2331.65 908.643 796.914Z" fill-rule="evenodd" clip-rule="evenodd"/></clipPath><clipPath id="clip18"><path d="M978.024 730.887 2438.56 2265.62 2369.17 2331.65 908.643 796.914Z" fill-rule="evenodd" clip-rule="evenodd"/></clipPath><clipPath id="clip19"><path d="M1767.24 308.853 2338.78 2348.93 2246.55 2374.77 1675.01 334.691Z" fill-rule="evenodd" clip-rule="evenodd"/></clipPath><clipPath id="clip20"><path d="M1767.24 308.853 2338.78 2348.93 2246.55 2374.77 1675.01 334.691Z" fill-rule="evenodd" clip-rule="evenodd"/></clipPath><linearGradient x1="1772" y1="3119.5" x2="1772" y2="3152.5" gradientUnits="userSpaceOnUse" spreadMethod="reflect" id="fill21"><stop offset="0" stop-color="#AAC2FB"/><stop offset="0.5" stop-color="#9BB6F9"/><stop offset="1" stop-color="#88AAFD"/></linearGradient><linearGradient x1="2209" y1="3119.5" x2="2209" y2="3152.5" gradientUnits="userSpaceOnUse" spreadMethod="reflect" id="fill22"><stop offset="0" stop-color="#F6A9A5"/><stop offset="0.5" stop-color="#F39A96"/><stop offset="1" stop-color="#F58782"/></linearGradient></defs><g transform="translate(-399 -1036)"><rect x="399.5" y="1036.5" width="3644" height="2182" fill="#FFFFFF"/><rect x="399.5" y="1036.5" width="3644" height="2182" stroke="#D9D9D9" stroke-width="3.4375" stroke-miterlimit="2" fill="none"/><g><path d="M2221.18 1788.94C2058.44 1788.94 1922.02 1911.9 1905.16 2073.76 1888.31 2235.62 1996.48 2384.05 2155.72 2417.57L2090.26 2728.48C1771.78 2661.43 1555.44 2364.57 1589.15 2040.86 1622.86 1717.14 1895.71 1471.22 2221.18 1471.22Z" stroke="#EA4335" stroke-width="3.4375" stroke-linejoin="round" stroke-miterlimit="10" stroke-opacity="0.501961" fill="url(#fill0)"/><path d="M2155.72 2417.57C2274.52 2442.59 2397.18 2397.72 2471.8 2301.95 2546.42 2206.19 2559.94 2076.28 2506.65 1967.2 2453.37 1858.12 2342.58 1788.94 2221.18 1788.94L2221.18 1471.22C2463.98 1471.22 2685.56 1609.58 2792.13 1827.74 2898.71 2045.9 2871.66 2305.72 2722.42 2497.24 2573.18 2688.76 2327.85 2778.5 2090.26 2728.48Z" stroke="#4285F4" stroke-width="3.4375" stroke-linejoin="round" stroke-miterlimit="10" stroke-opacity="0.501961" fill="url(#fill1)"/><path d="M2221.18 1471.22C2213.84 1471.22 2206.51 1471.35 2199.18 1471.6L2188.18 1154.07C2199.17 1153.69 2210.18 1153.5 2221.18 1153.5ZM2199.18 1471.6C2186.43 1472.04 2173.69 1472.87 2160.99 1474.08L2130.89 1157.78C2149.94 1155.97 2169.05 1154.73 2188.18 1154.07ZM2160.99 1474.08C2140.98 1475.98 2121.07 1478.83 2101.34 1482.62L2041.42 1170.6C2071.02 1164.92 2100.88 1160.64 2130.89 1157.78ZM2101.34 1482.62C2066.61 1489.29 2032.5 1498.85 1999.36 1511.19L1888.45 1213.46C1938.16 1194.94 1989.33 1180.61 2041.42 1170.6ZM1999.36 1511.19C1836.74 1571.77 1705.97 1696.22 1637.42 1855.63L1345.54 1730.12C1448.37 1490.99 1644.52 1304.32 1888.45 1213.46ZM1637.42 1855.64C1562.16 2030.65 1569.39 2230.2 1657.12 2399.31 1744.86 2568.41 1903.84 2689.23 2090.26 2728.48L2024.81 3039.39C1745.17 2980.52 1506.7 2799.28 1375.1 2545.62 1243.5 2291.96 1232.65 1992.64 1345.54 1730.12Z" stroke="#EA4335" stroke-width="3.4375" stroke-linejoin="round" stroke-miterlimit="10" stroke-opacity="0.501961" fill="url(#fill2)"/><path d="M2090.26 2728.48C2096.84 2729.87 2103.45 2731.15 2110.07 2732.33L2054.52 3045.15C2044.58 3043.39 2034.68 3041.47 2024.81 3039.39ZM2110.07 2732.33C2129.17 2735.72 2148.42 2738.23 2167.76 2739.86L2141.04 3056.46C2112.04 3054.02 2083.17 3050.24 2054.52 3045.15ZM2167.76 2739.86C2247.77 2746.61 2328.34 2738.14 2405.2 2714.88L2497.21 3018.99C2381.92 3053.87 2261.07 3066.59 2141.05 3056.46ZM2405.2 2714.88C2650.13 2640.78 2826.7 2426.99 2853.21 2172.48L3169.22 2205.38C3129.47 2587.15 2864.6 2907.83 2497.21 3018.99ZM2853.21 2172.48C2871.85 1993.46 2813.7 1814.94 2693.2 1681.24 2572.7 1547.55 2401.16 1471.22 2221.18 1471.22L2221.18 1153.5C2491.15 1153.5 2748.46 1267.99 2929.21 1468.53 3109.96 1669.07 3197.18 1936.86 3169.22 2205.38Z" stroke="#4285F4" stroke-width="3.4375" stroke-linejoin="round" stroke-miterlimit="10" stroke-opacity="0.501961" fill="url(#fill3)"/><g clip-path="url(#clip4)"><text fill="#424242" font-family="Arial,Arial_MSFontService,sans-serif" font-weight="400" font-size="41" transform="matrix(0.994623 0.103566 -0.103566 0.994623 2599.15 2138)">Employed, </text></g><g clip-path="url(#clip5)"><text fill="#424242" font-family="Arial,Arial_MSFontService,sans-serif" font-weight="400" font-size="41" transform="matrix(0.994623 0.103566 -0.103566 0.994623 2619.38 2187)">worked:</text></g><g clip-path="url(#clip6)"><text fill="#424242" font-family="Arial,Arial_MSFontService,sans-serif" font-weight="400" font-size="41" transform="matrix(0.77101 0.636823 -0.636823 0.77101 2743.47 2558)">Full</text></g><g clip-path="url(#clip7)"><text fill="#424242" font-family="Arial,Arial_MSFontService,sans-serif" font-weight="400" font-size="41" transform="matrix(0.77101 0.636823 -0.636823 0.77101 2794.73 2600)">-</text></g><g clip-path="url(#clip8)"><text fill="#424242" font-family="Arial,Arial_MSFontService,sans-serif" font-weight="400" font-size="41" transform="matrix(0.77101 0.636823 -0.636823 0.77101 2805.31 2609)">time(b)</text></g><g clip-path="url(#clip9)"><text fill="#424242" font-family="Arial,Arial_MSFontService,sans-serif" font-weight="400" font-size="41" transform="matrix(0.104628 0.994511 -0.994511 0.104628 2280.32 2815)">Part</text></g><g clip-path="url(#clip10)"><text fill="#424242" font-family="Arial,Arial_MSFontService,sans-serif" font-weight="400" font-size="41" transform="matrix(0.104628 0.994511 -0.994511 0.104628 2288.23 2890)">-</text></g><g clip-path="url(#clip11)"><text fill="#424242" font-family="Arial,Arial_MSFontService,sans-serif" font-weight="400" font-size="41" transform="matrix(0.104628 0.994511 -0.994511 0.104628 2289.67 2904)">time</text></g><g clip-path="url(#clip12)"><text fill="#424242" font-family="Arial,Arial_MSFontService,sans-serif" font-weight="400" font-size="41" transform="matrix(0.742821 -0.66949 0.66949 0.742821 2716.7 1681)">Total employed</text></g><g clip-path="url(#clip13)"><text fill="#424242" font-family="Arial,Arial_MSFontService,sans-serif" font-weight="400" font-size="41" transform="matrix(0.994623 0.103566 -0.103566 0.994623 1627.16 2036)">Unemployed, </text></g><g clip-path="url(#clip14)"><text fill="#424242" font-family="Arial,Arial_MSFontService,sans-serif" font-weight="400" font-size="41" transform="matrix(0.994623 0.103566 -0.103566 0.994623 1642.81 2085)">looking for:</text></g><g clip-path="url(#clip15)"><text fill="#424242" font-family="Arial,Arial_MSFontService,sans-serif" font-weight="400" font-size="41" transform="matrix(0.887647 -0.460524 0.460524 0.887647 1415.56 2515)">Total labour </text></g><g clip-path="url(#clip16)"><text fill="#424242" font-family="Arial,Arial_MSFontService,sans-serif" font-weight="400" font-size="41" transform="matrix(0.887647 -0.460524 0.460524 0.887647 1493.19 2528)">force</text></g><g clip-path="url(#clip17)"><text fill="#424242" font-family="Arial,Arial_MSFontService,sans-serif" font-weight="400" font-size="41" transform="matrix(0.689377 0.724403 -0.724403 0.689377 1575.37 1416)">Not in the labour </text></g><g clip-path="url(#clip18)"><text fill="#424242" font-family="Arial,Arial_MSFontService,sans-serif" font-weight="400" font-size="41" transform="matrix(0.689377 0.724403 -0.724403 0.689377 1614.04 1525)">force</text></g><g clip-path="url(#clip19)"><text fill="#424242" font-family="Arial,Arial_MSFontService,sans-serif" font-weight="400" font-size="41" transform="matrix(0.269771 0.962924 -0.962924 0.269771 1983.76 1228)">Labour force </text></g><g clip-path="url(#clip20)"><text fill="#424242" font-family="Arial,Arial_MSFontService,sans-serif" font-weight="400" font-size="41" transform="matrix(0.269771 0.962924 -0.962924 0.269771 1928.91 1206)">status not stated</text></g></g><g><text fill="#7F7F7F" font-family="Arial,Arial_MSFontService,sans-serif" font-weight="400" font-size="64" transform="translate(1833 1121)">Labour force status by sex</text></g><rect x="1715" y="3079" width="1012" height="114" fill="#000000" fill-opacity="0"/><path d="M1755.5 3119.5 1788.5 3119.5 1788.5 3152.5 1755.5 3152.5Z" stroke="#4285F4" stroke-width="3.4375" stroke-linejoin="round" stroke-miterlimit="10" stroke-opacity="0.501961" fill="url(#fill21)"/><g><text fill="#7F7F7F" font-family="Arial,Arial_MSFontService,sans-serif" font-weight="400" font-size="41" transform="translate(1807.14 3151)">Employed, worked:</text></g><path d="M2192.5 3119.5 2225.5 3119.5 2225.5 3152.5 2192.5 3152.5Z" stroke="#EA4335" stroke-width="3.4375" stroke-linejoin="round" stroke-miterlimit="10" stroke-opacity="0.501961" fill="url(#fill22)"/><g><text fill="#7F7F7F" font-family="Arial,Arial_MSFontService,sans-serif" font-weight="400" font-size="41" transform="translate(2244.44 3151)">Unemployed, looking for:</text></g><path d="M400 1037 4044.35 1037 4044.35 3219.31 400 3219.31Z" fill="#000000" fill-rule="evenodd" fill-opacity="0"/></g></svg>