<svg width="1640" height="1009" xmlns="http://www.w3.org/2000/svg" xmlns:xlink="http://www.w3.org/1999/xlink" xml:space="preserve" overflow="hidden"><defs><clipPath id="clip0"><rect x="-1" y="1220" width="1640" height="1009"/></clipPath><linearGradient x1="323" y1="1667.5" x2="323" y2="1990.5" gradientUnits="userSpaceOnUse" spreadMethod="reflect" id="fill1"><stop offset="0" stop-color="#AAC2FB"/><stop offset="0.5" stop-color="#9BB6F9"/><stop offset="1" stop-color="#88AAFD"/></linearGradient><linearGradient x1="404" y1="1461.5" x2="404" y2="1990.5" gradientUnits="userSpaceOnUse" spreadMethod="reflect" id="fill2"><stop offset="0" stop-color="#AAC2FB"/><stop offset="0.5" stop-color="#9BB6F9"/><stop offset="1" stop-color="#88AAFD"/></linearGradient><linearGradient x1="484.5" y1="1424.5" x2="484.5" y2="1990.5" gradientUnits="userSpaceOnUse" spreadMethod="reflect" id="fill3"><stop offset="0" stop-color="#AAC2FB"/><stop offset="0.5" stop-color="#9BB6F9"/><stop offset="1" stop-color="#88AAFD"/></linearGradient><linearGradient x1="565" y1="1420.5" x2="565" y2="1990.5" gradientUnits="userSpaceOnUse" spreadMethod="reflect" id="fill4"><stop offset="0" stop-color="#AAC2FB"/><stop offset="0.5" stop-color="#9BB6F9"/><stop offset="1" stop-color="#88AAFD"/></linearGradient><linearGradient x1="646" y1="1420.5" x2="646" y2="1990.5" gradientUnits="userSpaceOnUse" spreadMethod="reflect" id="fill5"><stop offset="0" stop-color="#AAC2FB"/><stop offset="0.5" stop-color="#9BB6F9"/><stop offset="1" stop-color="#88AAFD"/></linearGradient><linearGradient x1="727" y1="1421.5" x2="727" y2="1990.5" gradientUnits="userSpaceOnUse" spreadMethod="reflect" id="fill6"><stop offset="0" stop-color="#AAC2FB"/><stop offset="0.5" stop-color="#9BB6F9"/><stop offset="1" stop-color="#88AAFD"/></linearGradient><linearGradient x1="808" y1="1427.5" x2="808" y2="1990.5" gradientUnits="userSpaceOnUse" spreadMethod="reflect" id="fill7"><stop offset="0" stop-color="#AAC2FB"/><stop offset="0.5" stop-color="#9BB6F9"/><stop offset="1" stop-color="#88AAFD"/></linearGradient><linearGradient x1="889" y1="1438.5" x2="889" y2="1990.5" gradientUnits="userSpaceOnUse" spreadMethod="reflect" id="fill8"><stop offset="0" stop-color="#AAC2FB"/><stop offset="0.5" stop-color="#9BB6F9"/><stop offset="1" stop-color="#88AAFD"/></linearGradient><linearGradient x1="970" y1="1460.5" x2="970" y2="1990.5" gradientUnits="userSpaceOnUse" spreadMethod="reflect" id="fill9"><stop offset="0" stop-color="#AAC2FB"/><stop offset="0.5" stop-color="#9BB6F9"/><stop offset="1" stop-color="#88AAFD"/></linearGradient><linearGradient x1="1051" y1="1537.5" x2="1051" y2="1990.5" gradientUnits="userSpaceOnUse" spreadMethod="reflect" id="fill10"><stop offset="0" stop-color="#AAC2FB"/><stop offset="0.5" stop-color="#9BB6F9"/><stop offset="1" stop-color="#88AAFD"/></linearGradient><linearGradient x1="1132" y1="1780.5" x2="1132" y2="1990.5" gradientUnits="userSpaceOnUse" spreadMethod="reflect" id="fill11"><stop offset="0" stop-color="#AAC2FB"/><stop offset="0.5" stop-color="#9BB6F9"/><stop offset="1" stop-color="#88AAFD"/></linearGradient><linearGradient x1="1212.5" y1="1877.5" x2="1212.5" y2="1990.5" gradientUnits="userSpaceOnUse" spreadMethod="reflect" id="fill12"><stop offset="0" stop-color="#AAC2FB"/><stop offset="0.5" stop-color="#9BB6F9"/><stop offset="1" stop-color="#88AAFD"/></linearGradient><linearGradient x1="1293" y1="1937.5" x2="1293" y2="1990.5" gradientUnits="userSpaceOnUse" spreadMethod="reflect" id="fill13"><stop offset="0" stop-color="#AAC2FB"/><stop offset="0.5" stop-color="#9BB6F9"/><stop offset="1" stop-color="#88AAFD"/></linearGradient><linearGradient x1="346" y1="1689.5" x2="346" y2="1990.5" gradientUnits="userSpaceOnUse" spreadMethod="reflect" id="fill14"><stop offset="0" stop-color="#F6A9A5"/><stop offset="0.5" stop-color="#F39A96"/><stop offset="1" stop-color="#F58782"/></linearGradient><linearGradient x1="427" y1="1644.5" x2="427" y2="1990.5" gradientUnits="userSpaceOnUse" spreadMethod="reflect" id="fill15"><stop offset="0" stop-color="#F6A9A5"/><stop offset="0.5" stop-color="#F39A96"/><stop offset="1" stop-color="#F58782"/></linearGradient><linearGradient x1="508" y1="1759.5" x2="508" y2="1990.5" gradientUnits="userSpaceOnUse" spreadMethod="reflect" id="fill16"><stop offset="0" stop-color="#F6A9A5"/><stop offset="0.5" stop-color="#F39A96"/><stop offset="1" stop-color="#F58782"/></linearGradient><linearGradient x1="588.5" y1="1761.5" x2="588.5" y2="1990.5" gradientUnits="userSpaceOnUse" spreadMethod="reflect" id="fill17"><stop offset="0" stop-color="#F6A9A5"/><stop offset="0.5" stop-color="#F39A96"/><stop offset="1" stop-color="#F58782"/></linearGradient><linearGradient x1="669" y1="1730.5" x2="669" y2="1990.5" gradientUnits="userSpaceOnUse" spreadMethod="reflect" id="fill18"><stop offset="0" stop-color="#F6A9A5"/><stop offset="0.5" stop-color="#F39A96"/><stop offset="1" stop-color="#F58782"/></linearGradient><linearGradient x1="750" y1="1719.5" x2="750" y2="1990.5" gradientUnits="userSpaceOnUse" spreadMethod="reflect" id="fill19"><stop offset="0" stop-color="#F6A9A5"/><stop offset="0.5" stop-color="#F39A96"/><stop offset="1" stop-color="#F58782"/></linearGradient><linearGradient x1="831" y1="1732.5" x2="831" y2="1990.5" gradientUnits="userSpaceOnUse" spreadMethod="reflect" id="fill20"><stop offset="0" stop-color="#F6A9A5"/><stop offset="0.5" stop-color="#F39A96"/><stop offset="1" stop-color="#F58782"/></linearGradient><linearGradient x1="912" y1="1772.5" x2="912" y2="1990.5" gradientUnits="userSpaceOnUse" spreadMethod="reflect" id="fill21"><stop offset="0" stop-color="#F6A9A5"/><stop offset="0.5" stop-color="#F39A96"/><stop offset="1" stop-color="#F58782"/></linearGradient><linearGradient x1="993" y1="1820.5" x2="993" y2="1990.5" gradientUnits="userSpaceOnUse" spreadMethod="reflect" id="fill22"><stop offset="0" stop-color="#F6A9A5"/><stop offset="0.5" stop-color="#F39A96"/><stop offset="1" stop-color="#F58782"/></linearGradient><linearGradient x1="1074" y1="1894.5" x2="1074" y2="1990.5" gradientUnits="userSpaceOnUse" spreadMethod="reflect" id="fill23"><stop offset="0" stop-color="#F6A9A5"/><stop offset="0.5" stop-color="#F39A96"/><stop offset="1" stop-color="#F58782"/></linearGradient><linearGradient x1="1155" y1="1944.5" x2="1155" y2="1990.5" gradientUnits="userSpaceOnUse" spreadMethod="reflect" id="fill24"><stop offset="0" stop-color="#F6A9A5"/><stop offset="0.5" stop-color="#F39A96"/><stop offset="1" stop-color="#F58782"/></linearGradient><linearGradient x1="1236" y1="1968.5" x2="1236" y2="1990.5" gradientUnits="userSpaceOnUse" spreadMethod="reflect" id="fill25"><stop offset="0" stop-color="#F6A9A5"/><stop offset="0.5" stop-color="#F39A96"/><stop offset="1" stop-color="#F58782"/></linearGradient><linearGradient x1="1316.5" y1="1981.5" x2="1316.5" y2="1990.5" gradientUnits="userSpaceOnUse" spreadMethod="reflect" id="fill26"><stop offset="0" stop-color="#F6A9A5"/><stop offset="0.5" stop-color="#F39A96"/><stop offset="1" stop-color="#F58782"/></linearGradient><linearGradient x1="1427" y1="1734.5" x2="1427" y2="1755.5" gradientUnits="userSpaceOnUse" spreadMethod="reflect" id="fill27"><stop offset="0" stop-color="#AAC2FB"/><stop offset="0.5" stop-color="#9BB6F9"/><stop offset="1" stop-color="#88AAFD"/></linearGradient><linearGradient x1="1427" y1="1807.5" x2="1427" y2="1828.5" gradientUnits="userSpaceOnUse" spreadMethod="reflect" id="fill28"><stop offset="0" stop-color="#F6A9A5"/><stop offset="0.5" stop-color="#F39A96"/><stop offset="1" stop-color="#F58782"/></linearGradient></defs><g clip-path="url(#clip0)" transform="translate(1 -1220)"><rect x="0" y="1221" width="1637" height="1006" fill="#FFFFFF"/><g><path d="M293.5 1929.56 1345.5 1929.56M293.5 1869.56 1345.5 1869.56M293.5 1809.56 1345.5 1809.56M293.5 1748.56 1345.5 1748.56M293.5 1688.56 1345.5 1688.56M293.5 1628.55 1345.5 1628.55M293.5 1567.55 1345.5 1567.55M293.5 1507.55 1345.5 1507.55M293.5 1447.55 1345.5 1447.55M293.5 1386.5 1345.5 1386.5" stroke="#D9D9D9" stroke-width="3.4375" stroke-linejoin="round" stroke-miterlimit="10" fill="none"/></g><g><rect x="311.5" y="1667.5" width="23" height="323" stroke="#4082EF" stroke-width="3.4375" stroke-linejoin="round" stroke-miterlimit="10" fill="url(#fill1)"/></g><g><rect x="392.5" y="1461.5" width="23" height="529" stroke="#4082EF" stroke-width="3.4375" stroke-linejoin="round" stroke-miterlimit="10" fill="url(#fill2)"/></g><g><rect x="472.5" y="1424.5" width="23.9997" height="566" stroke="#4082EF" stroke-width="3.4375" stroke-linejoin="round" stroke-miterlimit="10" fill="url(#fill3)"/></g><g><rect x="553.5" y="1420.5" width="23.0001" height="570" stroke="#4082EF" stroke-width="3.4375" stroke-linejoin="round" stroke-miterlimit="10" fill="url(#fill4)"/></g><g><rect x="634.5" y="1420.5" width="23.0001" height="570" stroke="#4082EF" stroke-width="3.4375" stroke-linejoin="round" stroke-miterlimit="10" fill="url(#fill5)"/></g><g><rect x="715.5" y="1421.5" width="23.0001" height="569" stroke="#4082EF" stroke-width="3.4375" stroke-linejoin="round" stroke-miterlimit="10" fill="url(#fill6)"/></g><g><rect x="796.5" y="1427.5" width="23.0001" height="563" stroke="#4082EF" stroke-width="3.4375" stroke-linejoin="round" stroke-miterlimit="10" fill="url(#fill7)"/></g><g><rect x="877.5" y="1438.5" width="23.0001" height="552" stroke="#4082EF" stroke-width="3.4375" stroke-linejoin="round" stroke-miterlimit="10" fill="url(#fill8)"/></g><g><rect x="958.5" y="1460.5" width="23.0001" height="530" stroke="#4082EF" stroke-width="3.4375" stroke-linejoin="round" stroke-miterlimit="10" fill="url(#fill9)"/></g><g><rect x="1039.5" y="1537.5" width="23" height="453" stroke="#4082EF" stroke-width="3.4375" stroke-linejoin="round" stroke-miterlimit="10" fill="url(#fill10)"/></g><g><rect x="1120.5" y="1780.5" width="23" height="210" stroke="#4082EF" stroke-width="3.4375" stroke-linejoin="round" stroke-miterlimit="10" fill="url(#fill11)"/></g><g><rect x="1200.5" y="1877.5" width="24.0001" height="113" stroke="#4082EF" stroke-width="3.4375" stroke-linejoin="round" stroke-miterlimit="10" fill="url(#fill12)"/></g><g><rect x="1281.5" y="1937.5" width="23" height="53.0002" stroke="#4082EF" stroke-width="3.4375" stroke-linejoin="round" stroke-miterlimit="10" fill="url(#fill13)"/></g><g><rect x="334.5" y="1689.5" width="23" height="301" stroke="#E54134" stroke-width="3.4375" stroke-linejoin="round" stroke-miterlimit="10" fill="url(#fill14)"/></g><g><rect x="415.5" y="1644.5" width="23" height="346" stroke="#E54134" stroke-width="3.4375" stroke-linejoin="round" stroke-miterlimit="10" fill="url(#fill15)"/></g><g><rect x="496.5" y="1759.5" width="23.0001" height="231" stroke="#E54134" stroke-width="3.4375" stroke-linejoin="round" stroke-miterlimit="10" fill="url(#fill16)"/></g><g><rect x="576.5" y="1761.5" width="24.0001" height="229" stroke="#E54134" stroke-width="3.4375" stroke-linejoin="round" stroke-miterlimit="10" fill="url(#fill17)"/></g><g><rect x="657.5" y="1730.5" width="23.0001" height="260" stroke="#E54134" stroke-width="3.4375" stroke-linejoin="round" stroke-miterlimit="10" fill="url(#fill18)"/></g><g><rect x="738.5" y="1719.5" width="23.0001" height="271" stroke="#E54134" stroke-width="3.4375" stroke-linejoin="round" stroke-miterlimit="10" fill="url(#fill19)"/></g><g><rect x="819.5" y="1732.5" width="23.0001" height="258" stroke="#E54134" stroke-width="3.4375" stroke-linejoin="round" stroke-miterlimit="10" fill="url(#fill20)"/></g><g><rect x="900.5" y="1772.5" width="23.0001" height="218" stroke="#E54134" stroke-width="3.4375" stroke-linejoin="round" stroke-miterlimit="10" fill="url(#fill21)"/></g><g><rect x="981.5" y="1820.5" width="23.0001" height="170" stroke="#E54134" stroke-width="3.4375" stroke-linejoin="round" stroke-miterlimit="10" fill="url(#fill22)"/></g><g><rect x="1062.5" y="1894.5" width="23" height="96.0002" stroke="#E54134" stroke-width="3.4375" stroke-linejoin="round" stroke-miterlimit="10" fill="url(#fill23)"/></g><g><rect x="1143.5" y="1944.5" width="22.9996" height="46.0001" stroke="#E54134" stroke-width="3.4375" stroke-linejoin="round" stroke-miterlimit="10" fill="url(#fill24)"/></g><g><rect x="1224.5" y="1968.5" width="23" height="22" stroke="#E54134" stroke-width="3.4375" stroke-linejoin="round" stroke-miterlimit="10" fill="url(#fill25)"/></g><g><rect x="1304.5" y="1981.5" width="24.0001" height="9.00024" stroke="#E54134" stroke-width="3.4375" stroke-linejoin="round" stroke-miterlimit="10" fill="url(#fill26)"/></g><g><path d="M293.5 1990.5 1345.5 1990.5" stroke="#D9D9D9" stroke-width="3.4375" stroke-linejoin="round" stroke-miterlimit="10" fill="none" fill-rule="evenodd"/></g><g><text fill="#7F7F7F" font-family="Arial,Arial_MSFontService,sans-serif" font-weight="400" font-size="41" transform="matrix(1 0 0 1 164.336 2003)">0.0%</text></g><g><text fill="#7F7F7F" font-family="Arial,Arial_MSFontService,sans-serif" font-weight="400" font-size="41" transform="matrix(1 0 0 1 141.396 1943)">10.0%</text></g><g><text fill="#7F7F7F" font-family="Arial,Arial_MSFontService,sans-serif" font-weight="400" font-size="41" transform="matrix(1 0 0 1 141.396 1882)">20.0%</text></g><g><text fill="#7F7F7F" font-family="Arial,Arial_MSFontService,sans-serif" font-weight="400" font-size="41" transform="matrix(1 0 0 1 141.396 1822)">30.0%</text></g><g><text fill="#7F7F7F" font-family="Arial,Arial_MSFontService,sans-serif" font-weight="400" font-size="41" transform="matrix(1 0 0 1 141.396 1762)">40.0%</text></g><g><text fill="#7F7F7F" font-family="Arial,Arial_MSFontService,sans-serif" font-weight="400" font-size="41" transform="matrix(1 0 0 1 141.396 1701)">50.0%</text></g><g><text fill="#7F7F7F" font-family="Arial,Arial_MSFontService,sans-serif" font-weight="400" font-size="41" transform="matrix(1 0 0 1 141.396 1641)">60.0%</text></g><g><text fill="#7F7F7F" font-family="Arial,Arial_MSFontService,sans-serif" font-weight="400" font-size="41" transform="matrix(1 0 0 1 141.396 1581)">70.0%</text></g><g><text fill="#7F7F7F" font-family="Arial,Arial_MSFontService,sans-serif" font-weight="400" font-size="41" transform="matrix(1 0 0 1 141.396 1520)">80.0%</text></g><g><text fill="#7F7F7F" font-family="Arial,Arial_MSFontService,sans-serif" font-weight="400" font-size="41" transform="matrix(1 0 0 1 141.396 1460)">90.0%</text></g><g><text fill="#7F7F7F" font-family="Arial,Arial_MSFontService,sans-serif" font-weight="400" font-size="41" transform="matrix(1 0 0 1 118.456 1400)">100.0%</text></g><g><text fill="#7F7F7F" font-family="Arial,Arial_MSFontService,sans-serif" font-weight="400" font-size="41" transform="matrix(1 0 0 1 298.729 2052)">15 -</text></g><g><text fill="#7F7F7F" font-family="Arial,Arial_MSFontService,sans-serif" font-weight="400" font-size="41" transform="matrix(1 0 0 1 311.322 2099)">19</text></g><g><text fill="#7F7F7F" font-family="Arial,Arial_MSFontService,sans-serif" font-weight="400" font-size="41" transform="matrix(1 0 0 1 379.621 2052)">20 -</text></g><g><text fill="#7F7F7F" font-family="Arial,Arial_MSFontService,sans-serif" font-weight="400" font-size="41" transform="matrix(1 0 0 1 392.214 2099)">24</text></g><g><text fill="#7F7F7F" font-family="Arial,Arial_MSFontService,sans-serif" font-weight="400" font-size="41" transform="matrix(1 0 0 1 460.513 2052)">25 -</text></g><g><text fill="#7F7F7F" font-family="Arial,Arial_MSFontService,sans-serif" font-weight="400" font-size="41" transform="matrix(1 0 0 1 473.106 2099)">29</text></g><g><text fill="#7F7F7F" font-family="Arial,Arial_MSFontService,sans-serif" font-weight="400" font-size="41" transform="matrix(1 0 0 1 541.405 2052)">30 -</text></g><g><text fill="#7F7F7F" font-family="Arial,Arial_MSFontService,sans-serif" font-weight="400" font-size="41" transform="matrix(1 0 0 1 553.998 2099)">34</text></g><g><text fill="#7F7F7F" font-family="Arial,Arial_MSFontService,sans-serif" font-weight="400" font-size="41" transform="matrix(1 0 0 1 622.298 2052)">35 -</text></g><g><text fill="#7F7F7F" font-family="Arial,Arial_MSFontService,sans-serif" font-weight="400" font-size="41" transform="matrix(1 0 0 1 634.89 2099)">39</text></g><g><text fill="#7F7F7F" font-family="Arial,Arial_MSFontService,sans-serif" font-weight="400" font-size="41" transform="matrix(1 0 0 1 703.189 2052)">40 -</text></g><g><text fill="#7F7F7F" font-family="Arial,Arial_MSFontService,sans-serif" font-weight="400" font-size="41" transform="matrix(1 0 0 1 715.782 2099)">44</text></g><g><text fill="#7F7F7F" font-family="Arial,Arial_MSFontService,sans-serif" font-weight="400" font-size="41" transform="matrix(1 0 0 1 784.082 2052)">45 -</text></g><g><text fill="#7F7F7F" font-family="Arial,Arial_MSFontService,sans-serif" font-weight="400" font-size="41" transform="matrix(1 0 0 1 796.674 2099)">49</text></g><g><text fill="#7F7F7F" font-family="Arial,Arial_MSFontService,sans-serif" font-weight="400" font-size="41" transform="matrix(1 0 0 1 864.974 2052)">50 -</text></g><g><text fill="#7F7F7F" font-family="Arial,Arial_MSFontService,sans-serif" font-weight="400" font-size="41" transform="matrix(1 0 0 1 877.566 2099)">54</text></g><g><text fill="#7F7F7F" font-family="Arial,Arial_MSFontService,sans-serif" font-weight="400" font-size="41" transform="matrix(1 0 0 1 945.866 2052)">55 -</text></g><g><text fill="#7F7F7F" font-family="Arial,Arial_MSFontService,sans-serif" font-weight="400" font-size="41" transform="matrix(1 0 0 1 958.458 2099)">59</text></g><g><text fill="#7F7F7F" font-family="Arial,Arial_MSFontService,sans-serif" font-weight="400" font-size="41" transform="matrix(1 0 0 1 1026.76 2052)">60 -</text></g><g><text fill="#7F7F7F" font-family="Arial,Arial_MSFontService,sans-serif" font-weight="400" font-size="41" transform="matrix(1 0 0 1 1039.35 2099)">64</text></g><g><text fill="#7F7F7F" font-family="Arial,Arial_MSFontService,sans-serif" font-weight="400" font-size="41" transform="matrix(1 0 0 1 1107.65 2052)">65 -</text></g><g><text fill="#7F7F7F" font-family="Arial,Arial_MSFontService,sans-serif" font-weight="400" font-size="41" transform="matrix(1 0 0 1 1120.24 2099)">69</text></g><g><text fill="#7F7F7F" font-family="Arial,Arial_MSFontService,sans-serif" font-weight="400" font-size="41" transform="matrix(1 0 0 1 1188.54 2052)">70 -</text></g><g><text fill="#7F7F7F" font-family="Arial,Arial_MSFontService,sans-serif" font-weight="400" font-size="41" transform="matrix(1 0 0 1 1201.13 2099)">74</text></g><g><text fill="#7F7F7F" font-family="Arial,Arial_MSFontService,sans-serif" font-weight="400" font-size="41" transform="matrix(1 0 0 1 1269.98 2052)">&gt;75</text></g><g><text fill="#7F7F7F" font-family="Arial,Arial_MSFontService,sans-serif" font-weight="400" font-size="41" transform="matrix(6.12323e-17 -1 1 6.12323e-17 96.2958 1827)">% EMPLOYED</text></g><g><text fill="#7F7F7F" font-family="Arial,Arial_MSFontService,sans-serif" font-weight="400" font-size="41" transform="matrix(1 0 0 1 776.049 2161)">AGE</text></g><g><text fill="#7F7F7F" font-family="Arial,Arial_MSFontService,sans-serif" font-weight="400" font-size="64" transform="matrix(1 0 0 1 197.266 1316)">Proportion employed by age by sex </text></g><g><text fill="#7F7F7F" font-family="Arial,Arial_MSFontService,sans-serif" font-weight="400" font-size="64" transform="matrix(1 0 0 1 1252.03 1316)">-</text></g><g><text fill="#7F7F7F" font-family="Arial,Arial_MSFontService,sans-serif" font-weight="400" font-size="64" transform="matrix(1 0 0 1 1293.05 1316)">1971</text></g><g><rect x="1416.5" y="1734.5" width="21" height="21" stroke="#4082EF" stroke-width="3.4375" stroke-linejoin="round" stroke-miterlimit="10" fill="url(#fill27)"/></g><g><text fill="#7F7F7F" font-family="Arial,Arial_MSFontService,sans-serif" font-weight="400" font-size="41" transform="matrix(1 0 0 1 1445.88 1758)">males</text></g><g><rect x="1416.5" y="1807.5" width="21" height="21" stroke="#E54134" stroke-width="3.4375" stroke-linejoin="round" stroke-miterlimit="10" fill="url(#fill28)"/></g><g><text fill="#7F7F7F" font-family="Arial,Arial_MSFontService,sans-serif" font-weight="400" font-size="41" transform="matrix(1 0 0 1 1445.88 1831)">females</text></g><rect x="0.499836" y="1221.5" width="1637" height="1006" stroke="#D9D9D9" stroke-width="3.4375" stroke-linejoin="round" stroke-miterlimit="10" fill="none"/></g></svg>