<svg width="5076" height="3712" xmlns="http://www.w3.org/2000/svg" xmlns:xlink="http://www.w3.org/1999/xlink" xml:space="preserve" overflow="hidden"><defs><clipPath id="clip0"><rect x="4391" y="659" width="5076" height="3712"/></clipPath><linearGradient x1="7518.94" y1="1293.71" x2="7518.94" y2="2171.09" gradientUnits="userSpaceOnUse" spreadMethod="reflect" id="fill1"><stop offset="0" stop-color="#D09F9E"/><stop offset="0.5" stop-color="#C59290"/><stop offset="1" stop-color="#C07D7B"/></linearGradient><linearGradient x1="8067.05" y1="2106.5" x2="8067.05" y2="2587.44" gradientUnits="userSpaceOnUse" spreadMethod="reflect" id="fill2"><stop offset="0" stop-color="#DDA09E"/><stop offset="0.5" stop-color="#D39391"/><stop offset="1" stop-color="#D07F7C"/></linearGradient><linearGradient x1="8099.01" y1="2583.33" x2="8099.01" y2="2706.11" gradientUnits="userSpaceOnUse" spreadMethod="reflect" id="fill3"><stop offset="0" stop-color="#E5A2A0"/><stop offset="0.5" stop-color="#DF9592"/><stop offset="1" stop-color="#DF807D"/></linearGradient><linearGradient x1="8092.52" y1="2685.05" x2="8092.52" y2="2747.01" gradientUnits="userSpaceOnUse" spreadMethod="reflect" id="fill4"><stop offset="0" stop-color="#E8A6A3"/><stop offset="0.5" stop-color="#E49894"/><stop offset="1" stop-color="#E48480"/></linearGradient><linearGradient x1="7367.46" y1="2720.1" x2="7367.46" y2="3823.82" gradientUnits="userSpaceOnUse" spreadMethod="reflect" id="fill5"><stop offset="0" stop-color="#F1A8A4"/><stop offset="0.5" stop-color="#EE9996"/><stop offset="1" stop-color="#F08682"/></linearGradient><linearGradient x1="6545.37" y1="3573.17" x2="6545.37" y2="3767.57" gradientUnits="userSpaceOnUse" spreadMethod="reflect" id="fill6"><stop offset="0" stop-color="#F6B3B1"/><stop offset="0.5" stop-color="#F3A5A2"/><stop offset="1" stop-color="#F59591"/></linearGradient><linearGradient x1="6492.73" y1="3558.91" x2="6492.73" y2="3742.23" gradientUnits="userSpaceOnUse" spreadMethod="reflect" id="fill7"><stop offset="0" stop-color="#F8C7C6"/><stop offset="0.5" stop-color="#F5B9B7"/><stop offset="1" stop-color="#F7ADAB"/></linearGradient><linearGradient x1="6419.2" y1="3513.44" x2="6419.2" y2="3725.6" gradientUnits="userSpaceOnUse" spreadMethod="reflect" id="fill8"><stop offset="0" stop-color="#FAD7D6"/><stop offset="0.5" stop-color="#F7C9C7"/><stop offset="1" stop-color="#F8C0BF"/></linearGradient><linearGradient x1="6038.69" y1="1705.11" x2="6038.69" y2="3672.55" gradientUnits="userSpaceOnUse" spreadMethod="reflect" id="fill9"><stop offset="0" stop-color="#FCE7E6"/><stop offset="0.5" stop-color="#F9D9D8"/><stop offset="1" stop-color="#FAD3D2"/></linearGradient><linearGradient x1="6461.46" y1="1293.72" x2="6461.46" y2="1827.04" gradientUnits="userSpaceOnUse" spreadMethod="reflect" id="fill10"><stop offset="0" stop-color="#FEF5F5"/><stop offset="0.5" stop-color="#FBE7E6"/><stop offset="1" stop-color="#FCE3E3"/></linearGradient><linearGradient x1="7433.57" y1="1113" x2="7433.57" y2="1654.18" gradientUnits="userSpaceOnUse" spreadMethod="reflect" id="fill11"><stop offset="0" stop-color="#D09F9E"/><stop offset="0.5" stop-color="#C59290"/><stop offset="1" stop-color="#C07D7B"/></linearGradient><linearGradient x1="8091.18" y1="1524.96" x2="8091.18" y2="2463.3" gradientUnits="userSpaceOnUse" spreadMethod="reflect" id="fill12"><stop offset="0" stop-color="#DDA09E"/><stop offset="0.5" stop-color="#D39391"/><stop offset="1" stop-color="#D07F7C"/></linearGradient><linearGradient x1="8281.77" y1="2449.68" x2="8281.77" y2="2631.91" gradientUnits="userSpaceOnUse" spreadMethod="reflect" id="fill13"><stop offset="0" stop-color="#E5A2A0"/><stop offset="0.5" stop-color="#DF9592"/><stop offset="1" stop-color="#DF807D"/></linearGradient><linearGradient x1="8280.86" y1="2622.76" x2="8280.86" y2="2667.15" gradientUnits="userSpaceOnUse" spreadMethod="reflect" id="fill14"><stop offset="0" stop-color="#E8A6A3"/><stop offset="0.5" stop-color="#E49894"/><stop offset="1" stop-color="#E48480"/></linearGradient><linearGradient x1="7540.88" y1="2653.59" x2="7540.88" y2="4004.42" gradientUnits="userSpaceOnUse" spreadMethod="reflect" id="fill15"><stop offset="0" stop-color="#F1A8A4"/><stop offset="0.5" stop-color="#EE9996"/><stop offset="1" stop-color="#F08682"/></linearGradient><linearGradient x1="6699.94" y1="3801.83" x2="6699.94" y2="3988.08" gradientUnits="userSpaceOnUse" spreadMethod="reflect" id="fill16"><stop offset="0" stop-color="#F6B3B1"/><stop offset="0.5" stop-color="#F3A5A2"/><stop offset="1" stop-color="#F59591"/></linearGradient><linearGradient x1="6644.2" y1="3789.39" x2="6644.2" y2="3979.42" gradientUnits="userSpaceOnUse" spreadMethod="reflect" id="fill17"><stop offset="0" stop-color="#F8C7C6"/><stop offset="0.5" stop-color="#F5B9B7"/><stop offset="1" stop-color="#F7ADAB"/></linearGradient><linearGradient x1="6557.18" y1="3760.88" x2="6557.18" y2="3965.2" gradientUnits="userSpaceOnUse" spreadMethod="reflect" id="fill18"><stop offset="0" stop-color="#FAD7D6"/><stop offset="0.5" stop-color="#F7C9C7"/><stop offset="1" stop-color="#F8C0BF"/></linearGradient><linearGradient x1="6008.46" y1="1898.16" x2="6008.46" y2="3932.63" gradientUnits="userSpaceOnUse" spreadMethod="reflect" id="fill19"><stop offset="0" stop-color="#FCE7E6"/><stop offset="0.5" stop-color="#F9D9D8"/><stop offset="1" stop-color="#FAD3D2"/></linearGradient><linearGradient x1="6285.27" y1="1113.01" x2="6285.27" y2="1980.72" gradientUnits="userSpaceOnUse" spreadMethod="reflect" id="fill20"><stop offset="0" stop-color="#FEF5F5"/><stop offset="0.5" stop-color="#FBE7E6"/><stop offset="1" stop-color="#FCE3E3"/></linearGradient><linearGradient x1="4686.5" y1="4294.5" x2="4686.5" y2="4315.5" gradientUnits="userSpaceOnUse" spreadMethod="reflect" id="fill21"><stop offset="0" stop-color="#D09F9E"/><stop offset="0.5" stop-color="#C59290"/><stop offset="1" stop-color="#C07D7B"/></linearGradient><linearGradient x1="4953.5" y1="4294.5" x2="4953.5" y2="4315.5" gradientUnits="userSpaceOnUse" spreadMethod="reflect" id="fill22"><stop offset="0" stop-color="#DDA09E"/><stop offset="0.5" stop-color="#D39391"/><stop offset="1" stop-color="#D07F7C"/></linearGradient><linearGradient x1="5179" y1="4294.5" x2="5179" y2="4315.5" gradientUnits="userSpaceOnUse" spreadMethod="reflect" id="fill23"><stop offset="0" stop-color="#E5A2A0"/><stop offset="0.5" stop-color="#DF9592"/><stop offset="1" stop-color="#DF807D"/></linearGradient><linearGradient x1="5780.5" y1="4294.5" x2="5780.5" y2="4315.5" gradientUnits="userSpaceOnUse" spreadMethod="reflect" id="fill24"><stop offset="0" stop-color="#E8A6A3"/><stop offset="0.5" stop-color="#E49894"/><stop offset="1" stop-color="#E48480"/></linearGradient><linearGradient x1="6485" y1="4294.5" x2="6485" y2="4315.5" gradientUnits="userSpaceOnUse" spreadMethod="reflect" id="fill25"><stop offset="0" stop-color="#F1A8A4"/><stop offset="0.5" stop-color="#EE9996"/><stop offset="1" stop-color="#F08682"/></linearGradient><linearGradient x1="6825.5" y1="4294.5" x2="6825.5" y2="4315.5" gradientUnits="userSpaceOnUse" spreadMethod="reflect" id="fill26"><stop offset="0" stop-color="#F6B3B1"/><stop offset="0.5" stop-color="#F3A5A2"/><stop offset="1" stop-color="#F59591"/></linearGradient><linearGradient x1="7411" y1="4294.5" x2="7411" y2="4315.5" gradientUnits="userSpaceOnUse" spreadMethod="reflect" id="fill27"><stop offset="0" stop-color="#F8C7C6"/><stop offset="0.5" stop-color="#F5B9B7"/><stop offset="1" stop-color="#F7ADAB"/></linearGradient><linearGradient x1="8005.5" y1="4294.5" x2="8005.5" y2="4315.5" gradientUnits="userSpaceOnUse" spreadMethod="reflect" id="fill28"><stop offset="0" stop-color="#FAD7D6"/><stop offset="0.5" stop-color="#F7C9C7"/><stop offset="1" stop-color="#F8C0BF"/></linearGradient><linearGradient x1="8392" y1="4294.5" x2="8392" y2="4315.5" gradientUnits="userSpaceOnUse" spreadMethod="reflect" id="fill29"><stop offset="0" stop-color="#FCE7E6"/><stop offset="0.5" stop-color="#F9D9D8"/><stop offset="1" stop-color="#FAD3D2"/></linearGradient><linearGradient x1="8771" y1="4294.5" x2="8771" y2="4315.5" gradientUnits="userSpaceOnUse" spreadMethod="reflect" id="fill30"><stop offset="0" stop-color="#FEF5F5"/><stop offset="0.5" stop-color="#FBE7E6"/><stop offset="1" stop-color="#FCE3E3"/></linearGradient></defs><g clip-path="url(#clip0)" transform="translate(-4391 -659)"><rect x="4392" y="660" width="5073" height="3709" fill="#FFFFFF"/><g><path d="M6928.25 1293.71C7452.4 1293.71 7922.26 1616.97 8109.63 2106.5L7940.88 2171.09C7780.28 1751.49 7377.53 1474.4 6928.25 1474.4Z" stroke="#9B2920" stroke-width="3.4375" stroke-linejoin="round" stroke-miterlimit="10" fill="url(#fill1)" fill-rule="evenodd"/></g><g><path d="M8109.63 2106.5C8168.34 2259.89 8196.62 2423.24 8192.89 2587.44L8012.25 2583.33C8015.44 2442.58 7991.21 2302.57 7940.88 2171.09Z" stroke="#AF3025" stroke-width="3.4375" stroke-linejoin="round" stroke-miterlimit="10" fill="url(#fill2)" fill-rule="evenodd"/></g><g><path d="M8192.89 2587.43C8191.99 2627.1 8189.22 2666.7 8184.59 2706.11L8005.14 2685.05C8009.1 2651.27 8011.47 2617.33 8012.25 2583.33Z" stroke="#C1362A" stroke-width="3.4375" stroke-linejoin="round" stroke-miterlimit="10" fill="url(#fill3)" fill-rule="evenodd"/></g><g><path d="M8184.59 2706.11C8182.99 2719.77 8181.16 2733.41 8179.12 2747.01L8000.44 2720.1C8002.2 2708.45 8003.76 2696.76 8005.14 2685.05Z" stroke="#CF3A2E" stroke-width="3.4375" stroke-linejoin="round" stroke-miterlimit="10" fill="url(#fill4)" fill-rule="evenodd"/></g><g><path d="M8179.12 2747.01C8075.11 3437.84 7430.76 3913.56 6739.92 3809.55 6677.59 3800.16 6616.04 3786.13 6555.79 3767.57L6609 3594.89C7181.28 3771.21 7788.14 3450.22 7964.46 2877.93 7980.37 2826.29 7992.4 2773.54 8000.44 2720.1Z" stroke="#DE3F32" stroke-width="3.4375" stroke-linejoin="round" stroke-miterlimit="10" fill="url(#fill5)" fill-rule="evenodd"/></g><g><path d="M6555.79 3767.57C6530.86 3759.89 6506.16 3751.44 6481.75 3742.23L6545.53 3573.17C6566.45 3581.06 6587.62 3588.31 6608.99 3594.89Z" stroke="#E65C54" stroke-width="3.4375" stroke-linejoin="round" stroke-miterlimit="10" fill="url(#fill6)" fill-rule="evenodd"/></g><g><path d="M6481.75 3742.23C6467.71 3736.93 6453.78 3731.39 6439.94 3725.6L6509.69 3558.91C6521.55 3563.88 6533.5 3568.63 6545.53 3573.17Z" stroke="#E9827E" stroke-width="3.4375" stroke-linejoin="round" stroke-miterlimit="10" fill="url(#fill7)" fill-rule="evenodd"/></g><g><path d="M6439.94 3725.6C6402.02 3709.73 6364.91 3692.03 6328.71 3672.55L6414.35 3513.44C6445.37 3530.14 6477.19 3545.31 6509.69 3558.91Z" stroke="#EB9C99" stroke-width="3.4375" stroke-linejoin="round" stroke-miterlimit="10" fill="url(#fill8)" fill-rule="evenodd"/></g><g><path d="M6328.72 3672.55C5713.54 3341.44 5483.27 2574.32 5814.38 1959.15 5863.78 1867.37 5924.34 1782.04 5994.67 1705.11L6128.02 1827.04C5723.95 2268.99 5754.65 2954.83 6196.61 3358.91 6262.54 3419.2 6335.68 3471.1 6414.35 3513.45Z" stroke="#EEB2B1" stroke-width="3.4375" stroke-linejoin="round" stroke-miterlimit="10" fill="url(#fill9)" fill-rule="evenodd"/></g><g><path d="M5994.67 1705.12C6234.31 1443.01 6573.1 1293.72 6928.25 1293.72L6928.25 1474.4C6623.83 1474.4 6333.43 1602.37 6128.02 1827.04Z" stroke="#F1C6C5" stroke-width="3.4375" stroke-linejoin="round" stroke-miterlimit="10" fill="url(#fill10)" fill-rule="evenodd"/></g><g><path d="M6928.25 1113C7306.01 1113 7668.77 1260.87 7938.89 1524.96L7812.56 1654.18C7576.21 1423.1 7258.79 1293.72 6928.25 1293.72Z" stroke="#9B2920" stroke-width="3.4375" stroke-linejoin="round" stroke-miterlimit="10" fill="url(#fill11)" fill-rule="evenodd"/></g><g><path d="M7938.89 1524.96C8190.13 1770.59 8343.32 2099.32 8369.81 2449.68L8189.61 2463.3C8166.43 2156.74 8032.4 1869.1 7812.56 1654.18Z" stroke="#AF3025" stroke-width="3.4375" stroke-linejoin="round" stroke-miterlimit="10" fill="url(#fill12)" fill-rule="evenodd"/></g><g><path d="M8369.81 2449.68C8374.39 2510.31 8375.15 2571.18 8372.07 2631.91L8191.59 2622.76C8194.28 2569.62 8193.62 2516.36 8189.61 2463.31Z" stroke="#C1362A" stroke-width="3.4375" stroke-linejoin="round" stroke-miterlimit="10" fill="url(#fill13)" fill-rule="evenodd"/></g><g><path d="M8372.07 2631.91C8371.47 2643.67 8370.73 2655.41 8369.85 2667.15L8189.65 2653.59C8190.42 2643.32 8191.07 2633.04 8191.59 2622.76Z" stroke="#CF3A2E" stroke-width="3.4375" stroke-linejoin="round" stroke-miterlimit="10" fill="url(#fill14)" fill-rule="evenodd"/></g><g><path d="M8369.85 2667.15C8309.94 3463.32 7615.95 4060.19 6819.78 4000.28 6783.68 3997.57 6747.7 3993.5 6711.92 3988.08L6738.96 3809.41C7429.71 3913.95 8074.43 3438.73 8178.97 2747.97 8183.71 2716.66 8187.27 2685.17 8189.65 2653.59Z" stroke="#DE3F32" stroke-width="3.4375" stroke-linejoin="round" stroke-miterlimit="10" fill="url(#fill15)" fill-rule="evenodd"/></g><g><path d="M6711.92 3988.08C6694.87 3985.5 6677.87 3982.61 6660.92 3979.42L6694.34 3801.83C6709.16 3804.62 6724.04 3807.15 6738.96 3809.4Z" stroke="#E65C54" stroke-width="3.4375" stroke-linejoin="round" stroke-miterlimit="10" fill="url(#fill16)" fill-rule="evenodd"/></g><g><path d="M6660.92 3979.42C6638.53 3975.21 6616.24 3970.47 6594.07 3965.2L6635.84 3789.39C6655.24 3794 6674.74 3798.15 6694.34 3801.83Z" stroke="#E9827E" stroke-width="3.4375" stroke-linejoin="round" stroke-miterlimit="10" fill="url(#fill17)" fill-rule="evenodd"/></g><g><path d="M6594.07 3965.2C6555.12 3955.95 6516.57 3945.08 6478.52 3932.62L6534.73 3760.88C6568.03 3771.78 6601.76 3781.29 6635.84 3789.39Z" stroke="#EB9C99" stroke-width="3.4375" stroke-linejoin="round" stroke-miterlimit="10" fill="url(#fill18)" fill-rule="evenodd"/></g><g><path d="M6478.52 3932.63C5719.71 3684.25 5305.92 2867.76 5554.3 2108.95 5578.03 2036.48 5607.45 1965.99 5642.29 1898.16L5803.03 1980.72C5483.84 2602.16 5728.85 3364.7 6350.29 3683.89 6409.65 3714.38 6471.32 3740.12 6534.73 3760.88Z" stroke="#EEB2B1" stroke-width="3.4375" stroke-linejoin="round" stroke-miterlimit="10" fill="url(#fill19)" fill-rule="evenodd"/></g><g><path d="M5642.29 1898.16C5889.89 1416.1 6386.31 1113.01 6928.25 1113.01L6928.25 1293.71C6454.06 1293.71 6019.69 1558.92 5803.03 1980.72Z" stroke="#F1C6C5" stroke-width="3.4375" stroke-linejoin="round" stroke-miterlimit="10" fill="url(#fill20)" fill-rule="evenodd"/></g><g><path d="M7474.5 1536.5 7514.33 1536.5 7514.33 1536.5 7574.08 1536.5 7713.5 1536.5 7713.5 1554.67 7713.5 1554.67 7713.5 1581.92 7713.5 1645.5 7574.08 1645.5 7514.33 1645.5 7514.33 1645.5 7474.5 1645.5 7474.5 1581.92 7474.5 1591 7474.5 1554.67Z" stroke="#BFBFBF" stroke-width="3.4375" stroke-linejoin="round" stroke-miterlimit="10" fill="#FFFFFF" fill-rule="evenodd"/></g><g><g><text fill="#595959" font-family="Arial,Arial_MSFontService,sans-serif" font-weight="400" font-size="41" transform="matrix(1 0 0 1 7489.76 1583)">Full</text></g></g><g><g><text fill="#595959" font-family="Arial,Arial_MSFontService,sans-serif" font-weight="400" font-size="41" transform="matrix(1 0 0 1 7556.24 1583)">-</text></g></g><g><g><text fill="#595959" font-family="Arial,Arial_MSFontService,sans-serif" font-weight="400" font-size="41" transform="matrix(1 0 0 1 7569.97 1583)">time(b)</text></g></g><g><g><text fill="#595959" font-family="Arial,Arial_MSFontService,sans-serif" font-weight="400" font-size="41" transform="matrix(1 0 0 1 7552.76 1630)">19%</text></g></g><g><path d="M7987.5 2303.5 8020.17 2303.5 8020.17 2303.5 8069.17 2303.5 8183.5 2303.5 8183.5 2321.83 8183.5 2321.83 8183.5 2349.33 8183.5 2413.5 8069.17 2413.5 8020.17 2413.5 8020.17 2413.5 7987.5 2413.5 7987.5 2349.33 7987.5 2358.5 7987.5 2321.83Z" stroke="#BFBFBF" stroke-width="3.4375" stroke-linejoin="round" stroke-miterlimit="10" fill="#FFFFFF" fill-rule="evenodd"/></g><g><g><text fill="#595959" font-family="Arial,Arial_MSFontService,sans-serif" font-weight="400" font-size="41" transform="matrix(1 0 0 1 8002 2350)">Part</text></g></g><g><g><text fill="#595959" font-family="Arial,Arial_MSFontService,sans-serif" font-weight="400" font-size="41" transform="matrix(1 0 0 1 8077.65 2350)">-</text></g></g><g><g><text fill="#595959" font-family="Arial,Arial_MSFontService,sans-serif" font-weight="400" font-size="41" transform="matrix(1 0 0 1 8091.37 2350)">time</text></g></g><g><g><text fill="#595959" font-family="Arial,Arial_MSFontService,sans-serif" font-weight="400" font-size="41" transform="matrix(1 0 0 1 8055.85 2397)">6%</text></g></g><g><path d="M7397.5 3498.5 7449.5 3498.5 7449.5 3498.5 7527.5 3498.5 7709.5 3498.5 7709.5 3516.67 7709.5 3516.67 7709.5 3543.92 7709.5 3607.5 7527.5 3607.5 7449.5 3607.5 7449.5 3607.5 7397.5 3607.5 7397.5 3543.92 7397.5 3553 7397.5 3516.67Z" stroke="#BFBFBF" stroke-width="3.4375" stroke-linejoin="round" stroke-miterlimit="10" fill="#FFFFFF" fill-rule="evenodd"/></g><g><g><text fill="#595959" font-family="Arial,Arial_MSFontService,sans-serif" font-weight="400" font-size="41" transform="matrix(1 0 0 1 7412.42 3545)">Total employed</text></g></g><g><g><text fill="#595959" font-family="Arial,Arial_MSFontService,sans-serif" font-weight="400" font-size="41" transform="matrix(1 0 0 1 7512.15 3592)">27%</text></g></g><g><path d="M5594.5 2700.5 5653.17 2700.5 5653.17 2700.5 5741.17 2700.5 5946.5 2700.5 5946.5 2718.83 5946.5 2718.83 5946.5 2746.33 5946.5 2810.5 5741.17 2810.5 5653.17 2810.5 5653.17 2810.5 5594.5 2810.5 5594.5 2746.33 5594.5 2755.5 5594.5 2718.83Z" stroke="#BFBFBF" stroke-width="3.4375" stroke-linejoin="round" stroke-miterlimit="10" fill="#FFFFFF" fill-rule="evenodd"/></g><g><g><text fill="#595959" font-family="Arial,Arial_MSFontService,sans-serif" font-weight="400" font-size="41" transform="matrix(1 0 0 1 5609.72 2747)">Total labour force</text></g></g><g><g><text fill="#595959" font-family="Arial,Arial_MSFontService,sans-serif" font-weight="400" font-size="41" transform="matrix(1 0 0 1 5728.94 2794)">29%</text></g></g><g><path d="M6235.5 1428.5 6308.5 1428.5 6308.5 1428.5 6418 1428.5 6673.5 1428.5 6673.5 1446.83 6673.5 1446.83 6673.5 1474.33 6673.5 1538.5 6418 1538.5 6308.5 1538.5 6308.5 1538.5 6235.5 1538.5 6235.5 1474.33 6235.5 1483.5 6235.5 1446.83Z" stroke="#BFBFBF" stroke-width="3.4375" stroke-linejoin="round" stroke-miterlimit="10" fill="#FFFFFF" fill-rule="evenodd"/></g><g><g><text fill="#595959" font-family="Arial,Arial_MSFontService,sans-serif" font-weight="400" font-size="41" transform="matrix(1 0 0 1 6251.68 1475)">Not in the labour force</text></g></g><g><g><text fill="#595959" font-family="Arial,Arial_MSFontService,sans-serif" font-weight="400" font-size="41" transform="matrix(1 0 0 1 6413.31 1522)">13%</text></g></g><g><path d="M7320.5 1272.5 7360.17 1272.5 7360.17 1272.5 7419.67 1272.5 7558.5 1272.5 7558.5 1282.83 7558.5 1282.83 7558.5 1298.33 7558.5 1334.5 7419.67 1334.5 7360.17 1334.5 7360.17 1334.5 7320.5 1334.5 7320.5 1298.33 7320.5 1303.5 7320.5 1282.83Z" stroke="#BFBFBF" stroke-width="3.4375" stroke-linejoin="round" stroke-miterlimit="10" fill="#FFFFFF" fill-rule="evenodd"/></g><g><g><text fill="#595959" font-family="Arial,Arial_MSFontService,sans-serif" font-weight="400" font-size="41" transform="matrix(1 0 0 1 7335.57 1319)">Full</text></g></g><g><g><text fill="#595959" font-family="Arial,Arial_MSFontService,sans-serif" font-weight="400" font-size="41" transform="matrix(1 0 0 1 7402.05 1319)">-</text></g></g><g><g><text fill="#595959" font-family="Arial,Arial_MSFontService,sans-serif" font-weight="400" font-size="41" transform="matrix(1 0 0 1 7415.78 1319)">time(b)</text></g></g><g><path d="M8058.5 1955.5 8091.33 1955.5 8091.33 1955.5 8140.58 1955.5 8255.5 1955.5 8255.5 1965.83 8255.5 1965.83 8255.5 1981.33 8255.5 2017.5 8140.58 2017.5 8091.33 2017.5 8091.33 2017.5 8058.5 2017.5 8058.5 1981.33 8058.5 1986.5 8058.5 1965.83Z" stroke="#BFBFBF" stroke-width="3.4375" stroke-linejoin="round" stroke-miterlimit="10" fill="#FFFFFF" fill-rule="evenodd"/></g><g><g><text fill="#595959" font-family="Arial,Arial_MSFontService,sans-serif" font-weight="400" font-size="41" transform="matrix(1 0 0 1 8073.08 2002)">Part</text></g></g><g><g><text fill="#595959" font-family="Arial,Arial_MSFontService,sans-serif" font-weight="400" font-size="41" transform="matrix(1 0 0 1 8148.73 2002)">-</text></g></g><g><g><text fill="#595959" font-family="Arial,Arial_MSFontService,sans-serif" font-weight="400" font-size="41" transform="matrix(1 0 0 1 8162.46 2002)">time</text></g></g><g><path d="M7616.5 3587.5 7668.67 3587.5 7668.67 3587.5 7746.92 3587.5 7929.5 3587.5 7929.5 3597.83 7929.5 3597.83 7929.5 3613.33 7929.5 3649.5 7746.92 3649.5 7668.67 3649.5 7668.67 3649.5 7616.5 3649.5 7616.5 3613.33 7616.5 3618.5 7616.5 3597.83Z" stroke="#BFBFBF" stroke-width="3.4375" stroke-linejoin="round" stroke-miterlimit="10" fill="#FFFFFF" fill-rule="evenodd"/></g><g><g><text fill="#595959" font-family="Arial,Arial_MSFontService,sans-serif" font-weight="400" font-size="41" transform="matrix(1 0 0 1 7631.79 3634)">Total employed</text></g></g><g><path d="M5498.5 3043.5 5557.17 3043.5 5557.17 3043.5 5645.17 3043.5 5850.5 3043.5 5850.5 3053.67 5850.5 3053.67 5850.5 3068.92 5850.5 3104.5 5645.17 3104.5 5557.17 3104.5 5557.17 3104.5 5498.5 3104.5 5498.5 3068.92 5498.5 3074 5498.5 3053.67Z" stroke="#BFBFBF" stroke-width="3.4375" stroke-linejoin="round" stroke-miterlimit="10" fill="#FFFFFF" fill-rule="evenodd"/></g><g><g><text fill="#595959" font-family="Arial,Arial_MSFontService,sans-serif" font-weight="400" font-size="41" transform="matrix(1 0 0 1 5514.2 3089)">Total labour force</text></g></g><g><path d="M6003.5 1371.5 6076.33 1371.5 6076.33 1371.5 6185.58 1371.5 6440.5 1371.5 6440.5 1381.67 6440.5 1381.67 6440.5 1396.92 6440.5 1432.5 6185.58 1432.5 6076.33 1432.5 6076.33 1432.5 6003.5 1432.5 6003.5 1396.92 6003.5 1402 6003.5 1381.67Z" stroke="#BFBFBF" stroke-width="3.4375" stroke-linejoin="round" stroke-miterlimit="10" fill="#FFFFFF" fill-rule="evenodd"/></g><g><g><text fill="#595959" font-family="Arial,Arial_MSFontService,sans-serif" font-weight="400" font-size="41" transform="matrix(1 0 0 1 6019.07 1417)">Not in the labour force</text></g></g><g><text fill="#7F7F7F" font-family="Arial,Arial_MSFontService,sans-serif" font-weight="400" font-size="64" transform="matrix(1 0 0 1 6540.08 754)">Labour force status by sex </text></g><g><text fill="#7F7F7F" font-family="Arial,Arial_MSFontService,sans-serif" font-weight="400" font-size="64" transform="matrix(1 0 0 1 6488.45 828)">(Inner </text></g><g><text fill="#7F7F7F" font-family="Arial,Arial_MSFontService,sans-serif" font-weight="400" font-size="64" transform="matrix(1 0 0 1 6680.29 828)">-</text></g><g><text fill="#7F7F7F" font-family="Arial,Arial_MSFontService,sans-serif" font-weight="400" font-size="64" transform="matrix(1 0 0 1 6721.31 828)">Male, Outer </text></g><g><text fill="#7F7F7F" font-family="Arial,Arial_MSFontService,sans-serif" font-weight="400" font-size="64" transform="matrix(1 0 0 1 7085.32 828)">-</text></g><g><text fill="#7F7F7F" font-family="Arial,Arial_MSFontService,sans-serif" font-weight="400" font-size="64" transform="matrix(1 0 0 1 7126.34 828)">Female)</text></g><g><rect x="4676.5" y="4294.5" width="20.0005" height="21" stroke="#9B2920" stroke-width="3.4375" stroke-linejoin="round" stroke-miterlimit="10" fill="url(#fill21)"/></g><g><text fill="#7F7F7F" font-family="Arial,Arial_MSFontService,sans-serif" font-weight="400" font-size="41" transform="matrix(1 0 0 1 4705.6 4318)">Full-time(b)</text></g><g><rect x="4943.5" y="4294.5" width="20" height="21" stroke="#AF3025" stroke-width="3.4375" stroke-linejoin="round" stroke-miterlimit="10" fill="url(#fill22)"/></g><g><text fill="#7F7F7F" font-family="Arial,Arial_MSFontService,sans-serif" font-weight="400" font-size="41" transform="matrix(1 0 0 1 4972.4 4318)">Part-time</text></g><g><rect x="5168.5" y="4294.5" width="21" height="21" stroke="#C1362A" stroke-width="3.4375" stroke-linejoin="round" stroke-miterlimit="10" fill="url(#fill23)"/></g><g><text fill="#7F7F7F" font-family="Arial,Arial_MSFontService,sans-serif" font-weight="400" font-size="41" transform="matrix(1 0 0 1 5197.97 4318)">Employed, away from work(c)</text></g><g><rect x="5770.5" y="4294.5" width="20" height="21" stroke="#CF3A2E" stroke-width="3.4375" stroke-linejoin="round" stroke-miterlimit="10" fill="url(#fill24)"/></g><g><text fill="#7F7F7F" font-family="Arial,Arial_MSFontService,sans-serif" font-weight="400" font-size="41" transform="matrix(1 0 0 1 5799.44 4318)">Employed, hours of work not stated</text></g><g><rect x="6474.5" y="4294.5" width="21" height="21" stroke="#DE3F32" stroke-width="3.4375" stroke-linejoin="round" stroke-miterlimit="10" fill="url(#fill25)"/></g><g><text fill="#7F7F7F" font-family="Arial,Arial_MSFontService,sans-serif" font-weight="400" font-size="41" transform="matrix(1 0 0 1 6504.24 4318)">Total employed</text></g><g><rect x="6815.5" y="4294.5" width="20" height="21" stroke="#E65C54" stroke-width="3.4375" stroke-linejoin="round" stroke-miterlimit="10" fill="url(#fill26)"/></g><g><text fill="#7F7F7F" font-family="Arial,Arial_MSFontService,sans-serif" font-weight="400" font-size="41" transform="matrix(1 0 0 1 6844.53 4318)">Full-time work (Unemployed)</text></g><g><rect x="7400.5" y="4294.5" width="21" height="21" stroke="#E9827E" stroke-width="3.4375" stroke-linejoin="round" stroke-miterlimit="10" fill="url(#fill27)"/></g><g><text fill="#7F7F7F" font-family="Arial,Arial_MSFontService,sans-serif" font-weight="400" font-size="41" transform="matrix(1 0 0 1 7429.96 4318)">Part-time work (Unemployed)</text></g><g><rect x="7995.5" y="4294.5" width="20" height="21" stroke="#EB9C99" stroke-width="3.4375" stroke-linejoin="round" stroke-miterlimit="10" fill="url(#fill28)"/></g><g><text fill="#7F7F7F" font-family="Arial,Arial_MSFontService,sans-serif" font-weight="400" font-size="41" transform="matrix(1 0 0 1 8024.55 4318)">Total unemployed</text></g><g><rect x="8381.5" y="4294.5" width="21" height="21" stroke="#EEB2B1" stroke-width="3.4375" stroke-linejoin="round" stroke-miterlimit="10" fill="url(#fill29)"/></g><g><text fill="#7F7F7F" font-family="Arial,Arial_MSFontService,sans-serif" font-weight="400" font-size="41" transform="matrix(1 0 0 1 8410.72 4318)">Total labour force</text></g><g><rect x="8760.5" y="4294.5" width="21" height="21" stroke="#F1C6C5" stroke-width="3.4375" stroke-linejoin="round" stroke-miterlimit="10" fill="url(#fill30)"/></g><g><text fill="#7F7F7F" font-family="Arial,Arial_MSFontService,sans-serif" font-weight="400" font-size="41" transform="matrix(1 0 0 1 8789.97 4318)">Not in the labour force</text></g><rect x="4392.5" y="660.5" width="5073" height="3709" stroke="#D9D9D9" stroke-width="3.4375" stroke-linejoin="round" stroke-miterlimit="10" fill="none"/></g></svg>