<svg width="3678" height="2212" xmlns="http://www.w3.org/2000/svg" xmlns:xlink="http://www.w3.org/1999/xlink" xml:space="preserve" overflow="hidden"><defs><clipPath id="clip0"><rect x="675" y="6" width="3678" height="2212"/></clipPath><linearGradient x1="970" y1="1419.5" x2="970" y2="1925.5" gradientUnits="userSpaceOnUse" spreadMethod="reflect" id="fill1"><stop offset="0" stop-color="#AAC2FB"/><stop offset="0.5" stop-color="#9BB6F9"/><stop offset="1" stop-color="#88AAFD"/></linearGradient><linearGradient x1="1233.5" y1="484.5" x2="1233.5" y2="1925.5" gradientUnits="userSpaceOnUse" spreadMethod="reflect" id="fill2"><stop offset="0" stop-color="#AAC2FB"/><stop offset="0.5" stop-color="#9BB6F9"/><stop offset="1" stop-color="#88AAFD"/></linearGradient><linearGradient x1="1497" y1="445.5" x2="1497" y2="1925.5" gradientUnits="userSpaceOnUse" spreadMethod="reflect" id="fill3"><stop offset="0" stop-color="#AAC2FB"/><stop offset="0.5" stop-color="#9BB6F9"/><stop offset="1" stop-color="#88AAFD"/></linearGradient><linearGradient x1="1760" y1="367.5" x2="1760" y2="1925.5" gradientUnits="userSpaceOnUse" spreadMethod="reflect" id="fill4"><stop offset="0" stop-color="#AAC2FB"/><stop offset="0.5" stop-color="#9BB6F9"/><stop offset="1" stop-color="#88AAFD"/></linearGradient><linearGradient x1="2024" y1="367.5" x2="2024" y2="1925.5" gradientUnits="userSpaceOnUse" spreadMethod="reflect" id="fill5"><stop offset="0" stop-color="#AAC2FB"/><stop offset="0.5" stop-color="#9BB6F9"/><stop offset="1" stop-color="#88AAFD"/></linearGradient><linearGradient x1="2287" y1="367.5" x2="2287" y2="1925.5" gradientUnits="userSpaceOnUse" spreadMethod="reflect" id="fill6"><stop offset="0" stop-color="#AAC2FB"/><stop offset="0.5" stop-color="#9BB6F9"/><stop offset="1" stop-color="#88AAFD"/></linearGradient><linearGradient x1="2550.5" y1="367.5" x2="2550.5" y2="1925.5" gradientUnits="userSpaceOnUse" spreadMethod="reflect" id="fill7"><stop offset="0" stop-color="#AAC2FB"/><stop offset="0.5" stop-color="#9BB6F9"/><stop offset="1" stop-color="#88AAFD"/></linearGradient><linearGradient x1="2814" y1="367.5" x2="2814" y2="1925.5" gradientUnits="userSpaceOnUse" spreadMethod="reflect" id="fill8"><stop offset="0" stop-color="#AAC2FB"/><stop offset="0.5" stop-color="#9BB6F9"/><stop offset="1" stop-color="#88AAFD"/></linearGradient><linearGradient x1="3077.5" y1="367.5" x2="3077.5" y2="1925.5" gradientUnits="userSpaceOnUse" spreadMethod="reflect" id="fill9"><stop offset="0" stop-color="#AAC2FB"/><stop offset="0.5" stop-color="#9BB6F9"/><stop offset="1" stop-color="#88AAFD"/></linearGradient><linearGradient x1="3341" y1="445.5" x2="3341" y2="1925.5" gradientUnits="userSpaceOnUse" spreadMethod="reflect" id="fill10"><stop offset="0" stop-color="#AAC2FB"/><stop offset="0.5" stop-color="#9BB6F9"/><stop offset="1" stop-color="#88AAFD"/></linearGradient><linearGradient x1="3604.5" y1="484.5" x2="3604.5" y2="1925.5" gradientUnits="userSpaceOnUse" spreadMethod="reflect" id="fill11"><stop offset="0" stop-color="#AAC2FB"/><stop offset="0.5" stop-color="#9BB6F9"/><stop offset="1" stop-color="#88AAFD"/></linearGradient><linearGradient x1="3868" y1="795.5" x2="3868" y2="1925.5" gradientUnits="userSpaceOnUse" spreadMethod="reflect" id="fill12"><stop offset="0" stop-color="#AAC2FB"/><stop offset="0.5" stop-color="#9BB6F9"/><stop offset="1" stop-color="#88AAFD"/></linearGradient><linearGradient x1="4131" y1="1146.5" x2="4131" y2="1925.5" gradientUnits="userSpaceOnUse" spreadMethod="reflect" id="fill13"><stop offset="0" stop-color="#AAC2FB"/><stop offset="0.5" stop-color="#9BB6F9"/><stop offset="1" stop-color="#88AAFD"/></linearGradient><linearGradient x1="1045" y1="1535.5" x2="1045" y2="1925.5" gradientUnits="userSpaceOnUse" spreadMethod="reflect" id="fill14"><stop offset="0" stop-color="#F6A9A5"/><stop offset="0.5" stop-color="#F39A96"/><stop offset="1" stop-color="#F58782"/></linearGradient><linearGradient x1="1309" y1="834.5" x2="1309" y2="1925.5" gradientUnits="userSpaceOnUse" spreadMethod="reflect" id="fill15"><stop offset="0" stop-color="#F6A9A5"/><stop offset="0.5" stop-color="#F39A96"/><stop offset="1" stop-color="#F58782"/></linearGradient><linearGradient x1="1572" y1="445.5" x2="1572" y2="1925.5" gradientUnits="userSpaceOnUse" spreadMethod="reflect" id="fill16"><stop offset="0" stop-color="#F6A9A5"/><stop offset="0.5" stop-color="#F39A96"/><stop offset="1" stop-color="#F58782"/></linearGradient><linearGradient x1="1835.5" y1="561.5" x2="1835.5" y2="1925.5" gradientUnits="userSpaceOnUse" spreadMethod="reflect" id="fill17"><stop offset="0" stop-color="#F6A9A5"/><stop offset="0.5" stop-color="#F39A96"/><stop offset="1" stop-color="#F58782"/></linearGradient><linearGradient x1="2099" y1="678.5" x2="2099" y2="1925.5" gradientUnits="userSpaceOnUse" spreadMethod="reflect" id="fill18"><stop offset="0" stop-color="#F6A9A5"/><stop offset="0.5" stop-color="#F39A96"/><stop offset="1" stop-color="#F58782"/></linearGradient><linearGradient x1="2362.5" y1="561.5" x2="2362.5" y2="1925.5" gradientUnits="userSpaceOnUse" spreadMethod="reflect" id="fill19"><stop offset="0" stop-color="#F6A9A5"/><stop offset="0.5" stop-color="#F39A96"/><stop offset="1" stop-color="#F58782"/></linearGradient><linearGradient x1="2626" y1="522.5" x2="2626" y2="1925.5" gradientUnits="userSpaceOnUse" spreadMethod="reflect" id="fill20"><stop offset="0" stop-color="#F6A9A5"/><stop offset="0.5" stop-color="#F39A96"/><stop offset="1" stop-color="#F58782"/></linearGradient><linearGradient x1="2889" y1="522.5" x2="2889" y2="1925.5" gradientUnits="userSpaceOnUse" spreadMethod="reflect" id="fill21"><stop offset="0" stop-color="#F6A9A5"/><stop offset="0.5" stop-color="#F39A96"/><stop offset="1" stop-color="#F58782"/></linearGradient><linearGradient x1="3153" y1="600.5" x2="3153" y2="1925.5" gradientUnits="userSpaceOnUse" spreadMethod="reflect" id="fill22"><stop offset="0" stop-color="#F6A9A5"/><stop offset="0.5" stop-color="#F39A96"/><stop offset="1" stop-color="#F58782"/></linearGradient><linearGradient x1="3416" y1="756.5" x2="3416" y2="1925.5" gradientUnits="userSpaceOnUse" spreadMethod="reflect" id="fill23"><stop offset="0" stop-color="#F6A9A5"/><stop offset="0.5" stop-color="#F39A96"/><stop offset="1" stop-color="#F58782"/></linearGradient><linearGradient x1="3680" y1="990.5" x2="3680" y2="1925.5" gradientUnits="userSpaceOnUse" spreadMethod="reflect" id="fill24"><stop offset="0" stop-color="#F6A9A5"/><stop offset="0.5" stop-color="#F39A96"/><stop offset="1" stop-color="#F58782"/></linearGradient><linearGradient x1="3943" y1="1185.5" x2="3943" y2="1925.5" gradientUnits="userSpaceOnUse" spreadMethod="reflect" id="fill25"><stop offset="0" stop-color="#F6A9A5"/><stop offset="0.5" stop-color="#F39A96"/><stop offset="1" stop-color="#F58782"/></linearGradient><linearGradient x1="4206.5" y1="1341.5" x2="4206.5" y2="1925.5" gradientUnits="userSpaceOnUse" spreadMethod="reflect" id="fill26"><stop offset="0" stop-color="#F6A9A5"/><stop offset="0.5" stop-color="#F39A96"/><stop offset="1" stop-color="#F58782"/></linearGradient><linearGradient x1="2350.5" y1="2141.5" x2="2350.5" y2="2161.5" gradientUnits="userSpaceOnUse" spreadMethod="reflect" id="fill27"><stop offset="0" stop-color="#AAC2FB"/><stop offset="0.5" stop-color="#9BB6F9"/><stop offset="1" stop-color="#88AAFD"/></linearGradient><linearGradient x1="2525" y1="2141.5" x2="2525" y2="2161.5" gradientUnits="userSpaceOnUse" spreadMethod="reflect" id="fill28"><stop offset="0" stop-color="#F6A9A5"/><stop offset="0.5" stop-color="#F39A96"/><stop offset="1" stop-color="#F58782"/></linearGradient></defs><g clip-path="url(#clip0)" transform="translate(-675 -6)"><rect x="676" y="6.99987" width="3675" height="2209" fill="#FFFFFF"/><g><path d="M875.5 1730.56 4300.5 1730.56M875.5 1535.55 4300.5 1535.55M875.5 1341.54 4300.5 1341.54M875.5 1146.54 4300.5 1146.54M875.5 951.531 4300.5 951.531M875.5 756.525 4300.5 756.525M875.5 561.519 4300.5 561.519M875.5 367.512 4300.5 367.512M875.5 172.5 4300.5 172.5" stroke="#D9D9D9" stroke-width="3.4375" stroke-linejoin="round" stroke-miterlimit="10" fill="none"/></g><g><rect x="932.5" y="1419.5" width="74.9999" height="506" stroke="#4082EF" stroke-width="3.4375" stroke-linejoin="round" stroke-miterlimit="10" fill="url(#fill1)"/></g><g><rect x="1195.5" y="484.5" width="76" height="1441" stroke="#4082EF" stroke-width="3.4375" stroke-linejoin="round" stroke-miterlimit="10" fill="url(#fill2)"/></g><g><rect x="1459.5" y="445.5" width="74.9999" height="1480" stroke="#4082EF" stroke-width="3.4375" stroke-linejoin="round" stroke-miterlimit="10" fill="url(#fill3)"/></g><g><rect x="1722.5" y="367.5" width="74.9999" height="1558" stroke="#4082EF" stroke-width="3.4375" stroke-linejoin="round" stroke-miterlimit="10" fill="url(#fill4)"/></g><g><rect x="1986.5" y="367.5" width="75" height="1558" stroke="#4082EF" stroke-width="3.4375" stroke-linejoin="round" stroke-miterlimit="10" fill="url(#fill5)"/></g><g><rect x="2249.5" y="367.5" width="75" height="1558" stroke="#4082EF" stroke-width="3.4375" stroke-linejoin="round" stroke-miterlimit="10" fill="url(#fill6)"/></g><g><rect x="2512.5" y="367.5" width="76" height="1558" stroke="#4082EF" stroke-width="3.4375" stroke-linejoin="round" stroke-miterlimit="10" fill="url(#fill7)"/></g><g><rect x="2776.5" y="367.5" width="75" height="1558" stroke="#4082EF" stroke-width="3.4375" stroke-linejoin="round" stroke-miterlimit="10" fill="url(#fill8)"/></g><g><rect x="3039.5" y="367.5" width="76" height="1558" stroke="#4082EF" stroke-width="3.4375" stroke-linejoin="round" stroke-miterlimit="10" fill="url(#fill9)"/></g><g><rect x="3303.5" y="445.5" width="75" height="1480" stroke="#4082EF" stroke-width="3.4375" stroke-linejoin="round" stroke-miterlimit="10" fill="url(#fill10)"/></g><g><rect x="3566.5" y="484.5" width="76" height="1441" stroke="#4082EF" stroke-width="3.4375" stroke-linejoin="round" stroke-miterlimit="10" fill="url(#fill11)"/></g><g><rect x="3830.5" y="795.5" width="75" height="1130" stroke="#4082EF" stroke-width="3.4375" stroke-linejoin="round" stroke-miterlimit="10" fill="url(#fill12)"/></g><g><rect x="4093.5" y="1146.5" width="75.0002" height="779" stroke="#4082EF" stroke-width="3.4375" stroke-linejoin="round" stroke-miterlimit="10" fill="url(#fill13)"/></g><g><rect x="1007.5" y="1535.5" width="74.9999" height="390" stroke="#E54134" stroke-width="3.4375" stroke-linejoin="round" stroke-miterlimit="10" fill="url(#fill14)"/></g><g><rect x="1271.5" y="834.5" width="74.9999" height="1091" stroke="#E54134" stroke-width="3.4375" stroke-linejoin="round" stroke-miterlimit="10" fill="url(#fill15)"/></g><g><rect x="1534.5" y="445.5" width="74.9999" height="1480" stroke="#E54134" stroke-width="3.4375" stroke-linejoin="round" stroke-miterlimit="10" fill="url(#fill16)"/></g><g><rect x="1797.5" y="561.5" width="76" height="1364" stroke="#E54134" stroke-width="3.4375" stroke-linejoin="round" stroke-miterlimit="10" fill="url(#fill17)"/></g><g><rect x="2061.5" y="678.5" width="75" height="1247" stroke="#E54134" stroke-width="3.4375" stroke-linejoin="round" stroke-miterlimit="10" fill="url(#fill18)"/></g><g><rect x="2324.5" y="561.5" width="76" height="1364" stroke="#E54134" stroke-width="3.4375" stroke-linejoin="round" stroke-miterlimit="10" fill="url(#fill19)"/></g><g><rect x="2588.5" y="522.5" width="75" height="1403" stroke="#E54134" stroke-width="3.4375" stroke-linejoin="round" stroke-miterlimit="10" fill="url(#fill20)"/></g><g><rect x="2851.5" y="522.5" width="75" height="1403" stroke="#E54134" stroke-width="3.4375" stroke-linejoin="round" stroke-miterlimit="10" fill="url(#fill21)"/></g><g><rect x="3115.5" y="600.5" width="75" height="1325" stroke="#E54134" stroke-width="3.4375" stroke-linejoin="round" stroke-miterlimit="10" fill="url(#fill22)"/></g><g><rect x="3378.5" y="756.5" width="75.0002" height="1169" stroke="#E54134" stroke-width="3.4375" stroke-linejoin="round" stroke-miterlimit="10" fill="url(#fill23)"/></g><g><rect x="3642.5" y="990.5" width="75.0002" height="935" stroke="#E54134" stroke-width="3.4375" stroke-linejoin="round" stroke-miterlimit="10" fill="url(#fill24)"/></g><g><rect x="3905.5" y="1185.5" width="75.0002" height="740" stroke="#E54134" stroke-width="3.4375" stroke-linejoin="round" stroke-miterlimit="10" fill="url(#fill25)"/></g><g><rect x="4168.5" y="1341.5" width="76" height="584" stroke="#E54134" stroke-width="3.4375" stroke-linejoin="round" stroke-miterlimit="10" fill="url(#fill26)"/></g><g><path d="M875.5 1925.5 4300.5 1925.5" stroke="#D9D9D9" stroke-width="3.4375" stroke-linejoin="round" stroke-miterlimit="10" fill="none" fill-rule="evenodd"/></g><g><text fill="#7F7F7F" font-family="Arial,Arial_MSFontService,sans-serif" font-weight="400" font-size="41" transform="matrix(1 0 0 1 817.437 1938)">0</text></g><g><text fill="#7F7F7F" font-family="Arial,Arial_MSFontService,sans-serif" font-weight="400" font-size="41" transform="matrix(1 0 0 1 817.437 1743)">5</text></g><g><text fill="#7F7F7F" font-family="Arial,Arial_MSFontService,sans-serif" font-weight="400" font-size="41" transform="matrix(1 0 0 1 794.497 1549)">10</text></g><g><text fill="#7F7F7F" font-family="Arial,Arial_MSFontService,sans-serif" font-weight="400" font-size="41" transform="matrix(1 0 0 1 794.497 1354)">15</text></g><g><text fill="#7F7F7F" font-family="Arial,Arial_MSFontService,sans-serif" font-weight="400" font-size="41" transform="matrix(1 0 0 1 794.497 1159)">20</text></g><g><text fill="#7F7F7F" font-family="Arial,Arial_MSFontService,sans-serif" font-weight="400" font-size="41" transform="matrix(1 0 0 1 794.497 964)">25</text></g><g><text fill="#7F7F7F" font-family="Arial,Arial_MSFontService,sans-serif" font-weight="400" font-size="41" transform="matrix(1 0 0 1 794.497 769)">30</text></g><g><text fill="#7F7F7F" font-family="Arial,Arial_MSFontService,sans-serif" font-weight="400" font-size="41" transform="matrix(1 0 0 1 794.497 575)">35</text></g><g><text fill="#7F7F7F" font-family="Arial,Arial_MSFontService,sans-serif" font-weight="400" font-size="41" transform="matrix(1 0 0 1 794.497 380)">40</text></g><g><text fill="#7F7F7F" font-family="Arial,Arial_MSFontService,sans-serif" font-weight="400" font-size="41" transform="matrix(1 0 0 1 794.497 185)">45</text></g><g><text fill="#7F7F7F" font-family="Arial,Arial_MSFontService,sans-serif" font-weight="400" font-size="41" transform="matrix(1 0 0 1 943.372 1987)">15 - 19</text></g><g><text fill="#7F7F7F" font-family="Arial,Arial_MSFontService,sans-serif" font-weight="400" font-size="41" transform="matrix(1 0 0 1 1206.82 1987)">20 - 24</text></g><g><text fill="#7F7F7F" font-family="Arial,Arial_MSFontService,sans-serif" font-weight="400" font-size="41" transform="matrix(1 0 0 1 1470.26 1987)">25 - 29</text></g><g><text fill="#7F7F7F" font-family="Arial,Arial_MSFontService,sans-serif" font-weight="400" font-size="41" transform="matrix(1 0 0 1 1733.7 1987)">30 - 34</text></g><g><text fill="#7F7F7F" font-family="Arial,Arial_MSFontService,sans-serif" font-weight="400" font-size="41" transform="matrix(1 0 0 1 1997.15 1987)">35 - 39</text></g><g><text fill="#7F7F7F" font-family="Arial,Arial_MSFontService,sans-serif" font-weight="400" font-size="41" transform="matrix(1 0 0 1 2260.59 1987)">40 - 44</text></g><g><text fill="#7F7F7F" font-family="Arial,Arial_MSFontService,sans-serif" font-weight="400" font-size="41" transform="matrix(1 0 0 1 2524.03 1987)">45 - 49</text></g><g><text fill="#7F7F7F" font-family="Arial,Arial_MSFontService,sans-serif" font-weight="400" font-size="41" transform="matrix(1 0 0 1 2787.48 1987)">50 - 54</text></g><g><text fill="#7F7F7F" font-family="Arial,Arial_MSFontService,sans-serif" font-weight="400" font-size="41" transform="matrix(1 0 0 1 3050.92 1987)">55 - 59</text></g><g><text fill="#7F7F7F" font-family="Arial,Arial_MSFontService,sans-serif" font-weight="400" font-size="41" transform="matrix(1 0 0 1 3314.36 1987)">60 - 64</text></g><g><text fill="#7F7F7F" font-family="Arial,Arial_MSFontService,sans-serif" font-weight="400" font-size="41" transform="matrix(1 0 0 1 3577.81 1987)">65 - 69</text></g><g><text fill="#7F7F7F" font-family="Arial,Arial_MSFontService,sans-serif" font-weight="400" font-size="41" transform="matrix(1 0 0 1 3841.25 1987)">70 - 74</text></g><g><text fill="#7F7F7F" font-family="Arial,Arial_MSFontService,sans-serif" font-weight="400" font-size="41" transform="matrix(1 0 0 1 4128.18 1987)">&gt; 75</text></g><g><text fill="#7F7F7F" font-family="Arial,Arial_MSFontService,sans-serif" font-weight="400" font-size="41" transform="matrix(6.12323e-17 -1 1 6.12323e-17 772.337 1123)">HOURS</text></g><g><text fill="#7F7F7F" font-family="Arial,Arial_MSFontService,sans-serif" font-weight="400" font-size="41" transform="matrix(1 0 0 1 2544.67 2049)">AGE</text></g><g><text fill="#7F7F7F" font-family="Arial,Arial_MSFontService,sans-serif" font-weight="400" font-size="64" transform="matrix(1 0 0 1 1727.84 101)">Median hours worked per week by age group and sex</text></g><g><rect x="2340.5" y="2141.5" width="20" height="20" stroke="#4082EF" stroke-width="3.4375" stroke-linejoin="round" stroke-miterlimit="10" fill="url(#fill27)"/></g><g><text fill="#7F7F7F" font-family="Arial,Arial_MSFontService,sans-serif" font-weight="400" font-size="41" transform="matrix(1 0 0 1 2369.45 2164)">Males</text></g><g><rect x="2514.5" y="2141.5" width="21" height="20" stroke="#E54134" stroke-width="3.4375" stroke-linejoin="round" stroke-miterlimit="10" fill="url(#fill28)"/></g><g><text fill="#7F7F7F" font-family="Arial,Arial_MSFontService,sans-serif" font-weight="400" font-size="41" transform="matrix(1 0 0 1 2544.34 2164)">Females</text></g><rect x="676.5" y="7.50007" width="3675" height="2209" stroke="#D9D9D9" stroke-width="3.4375" stroke-linejoin="round" stroke-miterlimit="10" fill="none"/></g></svg>