<svg width="3564" height="2212" xmlns="http://www.w3.org/2000/svg" xmlns:xlink="http://www.w3.org/1999/xlink" xml:space="preserve" overflow="hidden"><defs><clipPath id="clip0"><rect x="20" y="685" width="3564" height="2212"/></clipPath><linearGradient x1="456.5" y1="1595.5" x2="456.5" y2="2510.5" gradientUnits="userSpaceOnUse" spreadMethod="reflect" id="fill1"><stop offset="0" stop-color="#AAC2FB"/><stop offset="0.5" stop-color="#9BB6F9"/><stop offset="1" stop-color="#88AAFD"/></linearGradient><linearGradient x1="773.5" y1="1347.5" x2="773.5" y2="2510.5" gradientUnits="userSpaceOnUse" spreadMethod="reflect" id="fill2"><stop offset="0" stop-color="#AAC2FB"/><stop offset="0.5" stop-color="#9BB6F9"/><stop offset="1" stop-color="#88AAFD"/></linearGradient><linearGradient x1="1091.5" y1="1317.5" x2="1091.5" y2="2510.5" gradientUnits="userSpaceOnUse" spreadMethod="reflect" id="fill3"><stop offset="0" stop-color="#AAC2FB"/><stop offset="0.5" stop-color="#9BB6F9"/><stop offset="1" stop-color="#88AAFD"/></linearGradient><linearGradient x1="1408.5" y1="2142.5" x2="1408.5" y2="2510.5" gradientUnits="userSpaceOnUse" spreadMethod="reflect" id="fill4"><stop offset="0" stop-color="#AAC2FB"/><stop offset="0.5" stop-color="#9BB6F9"/><stop offset="1" stop-color="#88AAFD"/></linearGradient><linearGradient x1="1725.5" y1="2161.5" x2="1725.5" y2="2510.5" gradientUnits="userSpaceOnUse" spreadMethod="reflect" id="fill5"><stop offset="0" stop-color="#AAC2FB"/><stop offset="0.5" stop-color="#9BB6F9"/><stop offset="1" stop-color="#88AAFD"/></linearGradient><linearGradient x1="2043.5" y1="2153.5" x2="2043.5" y2="2510.5" gradientUnits="userSpaceOnUse" spreadMethod="reflect" id="fill6"><stop offset="0" stop-color="#AAC2FB"/><stop offset="0.5" stop-color="#9BB6F9"/><stop offset="1" stop-color="#88AAFD"/></linearGradient><linearGradient x1="2360.5" y1="1900.5" x2="2360.5" y2="2510.5" gradientUnits="userSpaceOnUse" spreadMethod="reflect" id="fill7"><stop offset="0" stop-color="#AAC2FB"/><stop offset="0.5" stop-color="#9BB6F9"/><stop offset="1" stop-color="#88AAFD"/></linearGradient><linearGradient x1="2677.5" y1="1872.5" x2="2677.5" y2="2510.5" gradientUnits="userSpaceOnUse" spreadMethod="reflect" id="fill8"><stop offset="0" stop-color="#AAC2FB"/><stop offset="0.5" stop-color="#9BB6F9"/><stop offset="1" stop-color="#88AAFD"/></linearGradient><linearGradient x1="2995.5" y1="2436.5" x2="2995.5" y2="2510.5" gradientUnits="userSpaceOnUse" spreadMethod="reflect" id="fill9"><stop offset="0" stop-color="#AAC2FB"/><stop offset="0.5" stop-color="#9BB6F9"/><stop offset="1" stop-color="#88AAFD"/></linearGradient><linearGradient x1="3312.5" y1="2462.5" x2="3312.5" y2="2510.5" gradientUnits="userSpaceOnUse" spreadMethod="reflect" id="fill10"><stop offset="0" stop-color="#AAC2FB"/><stop offset="0.5" stop-color="#9BB6F9"/><stop offset="1" stop-color="#88AAFD"/></linearGradient><linearGradient x1="577.5" y1="1909.5" x2="577.5" y2="2510.5" gradientUnits="userSpaceOnUse" spreadMethod="reflect" id="fill11"><stop offset="0" stop-color="#F6A9A5"/><stop offset="0.5" stop-color="#F39A96"/><stop offset="1" stop-color="#F58782"/></linearGradient><linearGradient x1="895.5" y1="1013.5" x2="895.5" y2="2510.5" gradientUnits="userSpaceOnUse" spreadMethod="reflect" id="fill12"><stop offset="0" stop-color="#F6A9A5"/><stop offset="0.5" stop-color="#F39A96"/><stop offset="1" stop-color="#F58782"/></linearGradient><linearGradient x1="1212.5" y1="2271.5" x2="1212.5" y2="2510.5" gradientUnits="userSpaceOnUse" spreadMethod="reflect" id="fill13"><stop offset="0" stop-color="#F6A9A5"/><stop offset="0.5" stop-color="#F39A96"/><stop offset="1" stop-color="#F58782"/></linearGradient><linearGradient x1="1529.5" y1="1604.5" x2="1529.5" y2="2510.5" gradientUnits="userSpaceOnUse" spreadMethod="reflect" id="fill14"><stop offset="0" stop-color="#F6A9A5"/><stop offset="0.5" stop-color="#F39A96"/><stop offset="1" stop-color="#F58782"/></linearGradient><linearGradient x1="1847.5" y1="1453.5" x2="1847.5" y2="2510.5" gradientUnits="userSpaceOnUse" spreadMethod="reflect" id="fill15"><stop offset="0" stop-color="#F6A9A5"/><stop offset="0.5" stop-color="#F39A96"/><stop offset="1" stop-color="#F58782"/></linearGradient><linearGradient x1="2164.5" y1="1957.5" x2="2164.5" y2="2510.5" gradientUnits="userSpaceOnUse" spreadMethod="reflect" id="fill16"><stop offset="0" stop-color="#F6A9A5"/><stop offset="0.5" stop-color="#F39A96"/><stop offset="1" stop-color="#F58782"/></linearGradient><linearGradient x1="2481.5" y1="2423.5" x2="2481.5" y2="2510.5" gradientUnits="userSpaceOnUse" spreadMethod="reflect" id="fill17"><stop offset="0" stop-color="#F6A9A5"/><stop offset="0.5" stop-color="#F39A96"/><stop offset="1" stop-color="#F58782"/></linearGradient><linearGradient x1="2799.5" y1="2147.5" x2="2799.5" y2="2510.5" gradientUnits="userSpaceOnUse" spreadMethod="reflect" id="fill18"><stop offset="0" stop-color="#F6A9A5"/><stop offset="0.5" stop-color="#F39A96"/><stop offset="1" stop-color="#F58782"/></linearGradient><linearGradient x1="3116.5" y1="2460.5" x2="3116.5" y2="2510.5" gradientUnits="userSpaceOnUse" spreadMethod="reflect" id="fill19"><stop offset="0" stop-color="#F6A9A5"/><stop offset="0.5" stop-color="#F39A96"/><stop offset="1" stop-color="#F58782"/></linearGradient><linearGradient x1="3433.5" y1="2472.5" x2="3433.5" y2="2510.5" gradientUnits="userSpaceOnUse" spreadMethod="reflect" id="fill20"><stop offset="0" stop-color="#F6A9A5"/><stop offset="0.5" stop-color="#F39A96"/><stop offset="1" stop-color="#F58782"/></linearGradient><linearGradient x1="1638.5" y1="2820.5" x2="1638.5" y2="2841.5" gradientUnits="userSpaceOnUse" spreadMethod="reflect" id="fill21"><stop offset="0" stop-color="#AAC2FB"/><stop offset="0.5" stop-color="#9BB6F9"/><stop offset="1" stop-color="#88AAFD"/></linearGradient><linearGradient x1="1813.5" y1="2820.5" x2="1813.5" y2="2841.5" gradientUnits="userSpaceOnUse" spreadMethod="reflect" id="fill22"><stop offset="0" stop-color="#F6A9A5"/><stop offset="0.5" stop-color="#F39A96"/><stop offset="1" stop-color="#F58782"/></linearGradient></defs><g clip-path="url(#clip0)" transform="translate(-20 -685)"><rect x="21" y="686" width="3561" height="2209" fill="#FFFFFF"/><g><path d="M358.5 2325.58 3531.5 2325.58M358.5 2141.57 3531.5 2141.57M358.5 1957.56 3531.5 1957.56M358.5 1773.56 3531.5 1773.56M358.5 1588.55 3531.5 1588.55M358.5 1404.55 3531.5 1404.55M358.5 1220.54 3531.5 1220.54M358.5 1036.53 3531.5 1036.53M358.5 851.5 3531.5 851.5" stroke="#D9D9D9" stroke-width="3.4375" stroke-linejoin="round" stroke-miterlimit="10" fill="none"/></g><g><rect x="407.5" y="1595.5" width="98.0003" height="915" stroke="#4082EF" stroke-width="3.4375" stroke-linejoin="round" stroke-miterlimit="10" fill="url(#fill1)"/></g><g><rect x="724.5" y="1347.5" width="98" height="1163" stroke="#4082EF" stroke-width="3.4375" stroke-linejoin="round" stroke-miterlimit="10" fill="url(#fill2)"/></g><g><rect x="1042.5" y="1317.5" width="98" height="1193" stroke="#4082EF" stroke-width="3.4375" stroke-linejoin="round" stroke-miterlimit="10" fill="url(#fill3)"/></g><g><rect x="1359.5" y="2142.5" width="98" height="368" stroke="#4082EF" stroke-width="3.4375" stroke-linejoin="round" stroke-miterlimit="10" fill="url(#fill4)"/></g><g><rect x="1676.5" y="2161.5" width="98" height="349" stroke="#4082EF" stroke-width="3.4375" stroke-linejoin="round" stroke-miterlimit="10" fill="url(#fill5)"/></g><g><rect x="1994.5" y="2153.5" width="97.9999" height="357" stroke="#4082EF" stroke-width="3.4375" stroke-linejoin="round" stroke-miterlimit="10" fill="url(#fill6)"/></g><g><rect x="2311.5" y="1900.5" width="98" height="610" stroke="#4082EF" stroke-width="3.4375" stroke-linejoin="round" stroke-miterlimit="10" fill="url(#fill7)"/></g><g><rect x="2628.5" y="1872.5" width="98" height="638" stroke="#4082EF" stroke-width="3.4375" stroke-linejoin="round" stroke-miterlimit="10" fill="url(#fill8)"/></g><g><rect x="2946.5" y="2436.5" width="98" height="74" stroke="#4082EF" stroke-width="3.4375" stroke-linejoin="round" stroke-miterlimit="10" fill="url(#fill9)"/></g><g><rect x="3263.5" y="2462.5" width="98" height="47.9998" stroke="#4082EF" stroke-width="3.4375" stroke-linejoin="round" stroke-miterlimit="10" fill="url(#fill10)"/></g><g><rect x="528.5" y="1909.5" width="98.0003" height="601" stroke="#E54134" stroke-width="3.4375" stroke-linejoin="round" stroke-miterlimit="10" fill="url(#fill11)"/></g><g><rect x="846.5" y="1013.5" width="97.9999" height="1497" stroke="#E54134" stroke-width="3.4375" stroke-linejoin="round" stroke-miterlimit="10" fill="url(#fill12)"/></g><g><rect x="1163.5" y="2271.5" width="98" height="239" stroke="#E54134" stroke-width="3.4375" stroke-linejoin="round" stroke-miterlimit="10" fill="url(#fill13)"/></g><g><rect x="1480.5" y="1604.5" width="98" height="906" stroke="#E54134" stroke-width="3.4375" stroke-linejoin="round" stroke-miterlimit="10" fill="url(#fill14)"/></g><g><rect x="1798.5" y="1453.5" width="98" height="1057" stroke="#E54134" stroke-width="3.4375" stroke-linejoin="round" stroke-miterlimit="10" fill="url(#fill15)"/></g><g><rect x="2115.5" y="1957.5" width="98" height="553" stroke="#E54134" stroke-width="3.4375" stroke-linejoin="round" stroke-miterlimit="10" fill="url(#fill16)"/></g><g><rect x="2432.5" y="2423.5" width="98" height="87" stroke="#E54134" stroke-width="3.4375" stroke-linejoin="round" stroke-miterlimit="10" fill="url(#fill17)"/></g><g><rect x="2750.5" y="2147.5" width="98.0002" height="363" stroke="#E54134" stroke-width="3.4375" stroke-linejoin="round" stroke-miterlimit="10" fill="url(#fill18)"/></g><g><rect x="3067.5" y="2460.5" width="98" height="49.9998" stroke="#E54134" stroke-width="3.4375" stroke-linejoin="round" stroke-miterlimit="10" fill="url(#fill19)"/></g><g><rect x="3384.5" y="2472.5" width="98" height="37.9998" stroke="#E54134" stroke-width="3.4375" stroke-linejoin="round" stroke-miterlimit="10" fill="url(#fill20)"/></g><g><path d="M358.5 2510.5 3531.5 2510.5" stroke="#D9D9D9" stroke-width="3.4375" stroke-linejoin="round" stroke-miterlimit="10" fill="none" fill-rule="evenodd"/></g><g><text fill="#7F7F7F" font-family="Arial,Arial_MSFontService,sans-serif" font-weight="400" font-size="41" transform="matrix(1 0 0 1 300.165 2523)">0</text></g><g><text fill="#7F7F7F" font-family="Arial,Arial_MSFontService,sans-serif" font-weight="400" font-size="41" transform="matrix(1 0 0 1 174.008 2339)">200,000</text></g><g><text fill="#7F7F7F" font-family="Arial,Arial_MSFontService,sans-serif" font-weight="400" font-size="41" transform="matrix(1 0 0 1 174.008 2155)">400,000</text></g><g><text fill="#7F7F7F" font-family="Arial,Arial_MSFontService,sans-serif" font-weight="400" font-size="41" transform="matrix(1 0 0 1 174.008 1970)">600,000</text></g><g><text fill="#7F7F7F" font-family="Arial,Arial_MSFontService,sans-serif" font-weight="400" font-size="41" transform="matrix(1 0 0 1 174.008 1786)">800,000</text></g><g><text fill="#7F7F7F" font-family="Arial,Arial_MSFontService,sans-serif" font-weight="400" font-size="41" transform="matrix(1 0 0 1 139.61 1602)">1,000,000</text></g><g><text fill="#7F7F7F" font-family="Arial,Arial_MSFontService,sans-serif" font-weight="400" font-size="41" transform="matrix(1 0 0 1 139.61 1417)">1,200,000</text></g><g><text fill="#7F7F7F" font-family="Arial,Arial_MSFontService,sans-serif" font-weight="400" font-size="41" transform="matrix(1 0 0 1 139.61 1233)">1,400,000</text></g><g><text fill="#7F7F7F" font-family="Arial,Arial_MSFontService,sans-serif" font-weight="400" font-size="41" transform="matrix(1 0 0 1 139.61 1049)">1,600,000</text></g><g><text fill="#7F7F7F" font-family="Arial,Arial_MSFontService,sans-serif" font-weight="400" font-size="41" transform="matrix(1 0 0 1 139.61 865)">1,800,000</text></g><g><text fill="#7F7F7F" font-family="Arial,Arial_MSFontService,sans-serif" font-weight="400" font-size="41" transform="matrix(1 0 0 1 425.543 2572)">Managers</text></g><g><text fill="#7F7F7F" font-family="Arial,Arial_MSFontService,sans-serif" font-weight="400" font-size="41" transform="matrix(1 0 0 1 710.766 2572)">Professionals</text></g><g><text fill="#7F7F7F" font-family="Arial,Arial_MSFontService,sans-serif" font-weight="400" font-size="41" transform="matrix(1 0 0 1 1001.71 2572)">Technicians and</text></g><g><text fill="#7F7F7F" font-family="Arial,Arial_MSFontService,sans-serif" font-weight="400" font-size="41" transform="matrix(1 0 0 1 1015.54 2620)">Trade Workers</text></g><g><text fill="#7F7F7F" font-family="Arial,Arial_MSFontService,sans-serif" font-weight="400" font-size="41" transform="matrix(1 0 0 1 1324.81 2572)">Community and</text></g><g><text fill="#7F7F7F" font-family="Arial,Arial_MSFontService,sans-serif" font-weight="400" font-size="41" transform="matrix(1 0 0 1 1313.33 2620)">Personal Service</text></g><g><text fill="#7F7F7F" font-family="Arial,Arial_MSFontService,sans-serif" font-weight="400" font-size="41" transform="matrix(1 0 0 1 1392.47 2667)">Workers</text></g><g><text fill="#7F7F7F" font-family="Arial,Arial_MSFontService,sans-serif" font-weight="400" font-size="41" transform="matrix(1 0 0 1 1677.66 2572)">Clerical and</text></g><g><text fill="#7F7F7F" font-family="Arial,Arial_MSFontService,sans-serif" font-weight="400" font-size="41" transform="matrix(1 0 0 1 1657.05 2620)">Administrative</text></g><g><text fill="#7F7F7F" font-family="Arial,Arial_MSFontService,sans-serif" font-weight="400" font-size="41" transform="matrix(1 0 0 1 1709.8 2667)">Workers</text></g><g><text fill="#7F7F7F" font-family="Arial,Arial_MSFontService,sans-serif" font-weight="400" font-size="41" transform="matrix(1 0 0 1 1980.12 2572)">Sale Workers</text></g><g><text fill="#7F7F7F" font-family="Arial,Arial_MSFontService,sans-serif" font-weight="400" font-size="41" transform="matrix(1 0 0 1 2326.09 2572)">Machinery</text></g><g><text fill="#7F7F7F" font-family="Arial,Arial_MSFontService,sans-serif" font-weight="400" font-size="41" transform="matrix(1 0 0 1 2289.39 2620)">Operators and</text></g><g><text fill="#7F7F7F" font-family="Arial,Arial_MSFontService,sans-serif" font-weight="400" font-size="41" transform="matrix(1 0 0 1 2355.92 2667)">Drivers</text></g><g><text fill="#7F7F7F" font-family="Arial,Arial_MSFontService,sans-serif" font-weight="400" font-size="41" transform="matrix(1 0 0 1 2645.69 2572)">Labourers</text></g><g><text fill="#7F7F7F" font-family="Arial,Arial_MSFontService,sans-serif" font-weight="400" font-size="41" transform="matrix(1 0 0 1 2937.76 2572)">Inadequately</text></g><g><text fill="#7F7F7F" font-family="Arial,Arial_MSFontService,sans-serif" font-weight="400" font-size="41" transform="matrix(1 0 0 1 2966.46 2620)">described</text></g><g><text fill="#7F7F7F" font-family="Arial,Arial_MSFontService,sans-serif" font-weight="400" font-size="41" transform="matrix(1 0 0 1 3279.2 2572)">Not stated</text></g><g><text fill="#7F7F7F" font-family="Arial,Arial_MSFontService,sans-serif" font-weight="400" font-size="41" transform="matrix(6.12323e-17 -1 1 6.12323e-17 117.45 1814)">POPULATION</text></g><g><text fill="#7F7F7F" font-family="Arial,Arial_MSFontService,sans-serif" font-weight="400" font-size="41" transform="matrix(1 0 0 1 1839.79 2729)">INDUSTRY</text></g><g><text fill="#7F7F7F" font-family="Arial,Arial_MSFontService,sans-serif" font-weight="400" font-size="64" transform="matrix(1 0 0 1 1340.37 781)">Occupation by industry and sex</text></g><g><rect x="1628.5" y="2820.5" width="20.0002" height="21" stroke="#4082EF" stroke-width="3.4375" stroke-linejoin="round" stroke-miterlimit="10" fill="url(#fill21)"/></g><g><text fill="#7F7F7F" font-family="Arial,Arial_MSFontService,sans-serif" font-weight="400" font-size="41" transform="matrix(1 0 0 1 1657.64 2844)">Males</text></g><g><rect x="1803.5" y="2820.5" width="19.9999" height="21" stroke="#E54134" stroke-width="3.4375" stroke-linejoin="round" stroke-miterlimit="10" fill="url(#fill22)"/></g><g><text fill="#7F7F7F" font-family="Arial,Arial_MSFontService,sans-serif" font-weight="400" font-size="41" transform="matrix(1 0 0 1 1832.53 2844)">Females</text></g><rect x="21.5002" y="686.5" width="3561" height="2209" stroke="#D9D9D9" stroke-width="3.4375" stroke-linejoin="round" stroke-miterlimit="10" fill="none"/></g></svg>