<svg width="1640" height="1011" xmlns="http://www.w3.org/2000/svg" xmlns:xlink="http://www.w3.org/1999/xlink" xml:space="preserve" overflow="hidden"><defs><clipPath id="clip0"><rect x="-1" y="2225" width="1640" height="1011"/></clipPath><linearGradient x1="300.5" y1="2729.5" x2="300.5" y2="2997.5" gradientUnits="userSpaceOnUse" spreadMethod="reflect" id="fill1"><stop offset="0" stop-color="#AAC2FB"/><stop offset="0.5" stop-color="#9BB6F9"/><stop offset="1" stop-color="#88AAFD"/></linearGradient><linearGradient x1="383" y1="2529.5" x2="383" y2="2997.5" gradientUnits="userSpaceOnUse" spreadMethod="reflect" id="fill2"><stop offset="0" stop-color="#AAC2FB"/><stop offset="0.5" stop-color="#9BB6F9"/><stop offset="1" stop-color="#88AAFD"/></linearGradient><linearGradient x1="465.5" y1="2468.5" x2="465.5" y2="2997.5" gradientUnits="userSpaceOnUse" spreadMethod="reflect" id="fill3"><stop offset="0" stop-color="#AAC2FB"/><stop offset="0.5" stop-color="#9BB6F9"/><stop offset="1" stop-color="#88AAFD"/></linearGradient><linearGradient x1="548.5" y1="2449.5" x2="548.5" y2="2997.5" gradientUnits="userSpaceOnUse" spreadMethod="reflect" id="fill4"><stop offset="0" stop-color="#AAC2FB"/><stop offset="0.5" stop-color="#9BB6F9"/><stop offset="1" stop-color="#88AAFD"/></linearGradient><linearGradient x1="631" y1="2447.5" x2="631" y2="2997.5" gradientUnits="userSpaceOnUse" spreadMethod="reflect" id="fill5"><stop offset="0" stop-color="#AAC2FB"/><stop offset="0.5" stop-color="#9BB6F9"/><stop offset="1" stop-color="#88AAFD"/></linearGradient><linearGradient x1="713.5" y1="2446.5" x2="713.5" y2="2997.5" gradientUnits="userSpaceOnUse" spreadMethod="reflect" id="fill6"><stop offset="0" stop-color="#AAC2FB"/><stop offset="0.5" stop-color="#9BB6F9"/><stop offset="1" stop-color="#88AAFD"/></linearGradient><linearGradient x1="796.5" y1="2453.5" x2="796.5" y2="2997.5" gradientUnits="userSpaceOnUse" spreadMethod="reflect" id="fill7"><stop offset="0" stop-color="#AAC2FB"/><stop offset="0.5" stop-color="#9BB6F9"/><stop offset="1" stop-color="#88AAFD"/></linearGradient><linearGradient x1="879" y1="2477.5" x2="879" y2="2997.5" gradientUnits="userSpaceOnUse" spreadMethod="reflect" id="fill8"><stop offset="0" stop-color="#AAC2FB"/><stop offset="0.5" stop-color="#9BB6F9"/><stop offset="1" stop-color="#88AAFD"/></linearGradient><linearGradient x1="961.5" y1="2556.5" x2="961.5" y2="2997.5" gradientUnits="userSpaceOnUse" spreadMethod="reflect" id="fill9"><stop offset="0" stop-color="#AAC2FB"/><stop offset="0.5" stop-color="#9BB6F9"/><stop offset="1" stop-color="#88AAFD"/></linearGradient><linearGradient x1="1044.5" y1="2699.5" x2="1044.5" y2="2997.5" gradientUnits="userSpaceOnUse" spreadMethod="reflect" id="fill10"><stop offset="0" stop-color="#AAC2FB"/><stop offset="0.5" stop-color="#9BB6F9"/><stop offset="1" stop-color="#88AAFD"/></linearGradient><linearGradient x1="1127" y1="2870.5" x2="1127" y2="2997.5" gradientUnits="userSpaceOnUse" spreadMethod="reflect" id="fill11"><stop offset="0" stop-color="#AAC2FB"/><stop offset="0.5" stop-color="#9BB6F9"/><stop offset="1" stop-color="#88AAFD"/></linearGradient><linearGradient x1="1209.5" y1="2933.5" x2="1209.5" y2="2997.5" gradientUnits="userSpaceOnUse" spreadMethod="reflect" id="fill12"><stop offset="0" stop-color="#AAC2FB"/><stop offset="0.5" stop-color="#9BB6F9"/><stop offset="1" stop-color="#88AAFD"/></linearGradient><linearGradient x1="1292.5" y1="2965.5" x2="1292.5" y2="2997.5" gradientUnits="userSpaceOnUse" spreadMethod="reflect" id="fill13"><stop offset="0" stop-color="#AAC2FB"/><stop offset="0.5" stop-color="#9BB6F9"/><stop offset="1" stop-color="#88AAFD"/></linearGradient><linearGradient x1="324" y1="2705.5" x2="324" y2="2997.5" gradientUnits="userSpaceOnUse" spreadMethod="reflect" id="fill14"><stop offset="0" stop-color="#F6A9A5"/><stop offset="0.5" stop-color="#F39A96"/><stop offset="1" stop-color="#F58782"/></linearGradient><linearGradient x1="406.5" y1="2551.5" x2="406.5" y2="2997.5" gradientUnits="userSpaceOnUse" spreadMethod="reflect" id="fill15"><stop offset="0" stop-color="#F6A9A5"/><stop offset="0.5" stop-color="#F39A96"/><stop offset="1" stop-color="#F58782"/></linearGradient><linearGradient x1="489.5" y1="2551.5" x2="489.5" y2="2997.5" gradientUnits="userSpaceOnUse" spreadMethod="reflect" id="fill16"><stop offset="0" stop-color="#F6A9A5"/><stop offset="0.5" stop-color="#F39A96"/><stop offset="1" stop-color="#F58782"/></linearGradient><linearGradient x1="572" y1="2584.5" x2="572" y2="2997.5" gradientUnits="userSpaceOnUse" spreadMethod="reflect" id="fill17"><stop offset="0" stop-color="#F6A9A5"/><stop offset="0.5" stop-color="#F39A96"/><stop offset="1" stop-color="#F58782"/></linearGradient><linearGradient x1="654.5" y1="2575.5" x2="654.5" y2="2997.5" gradientUnits="userSpaceOnUse" spreadMethod="reflect" id="fill18"><stop offset="0" stop-color="#F6A9A5"/><stop offset="0.5" stop-color="#F39A96"/><stop offset="1" stop-color="#F58782"/></linearGradient><linearGradient x1="737.5" y1="2535.5" x2="737.5" y2="2997.5" gradientUnits="userSpaceOnUse" spreadMethod="reflect" id="fill19"><stop offset="0" stop-color="#F6A9A5"/><stop offset="0.5" stop-color="#F39A96"/><stop offset="1" stop-color="#F58782"/></linearGradient><linearGradient x1="820" y1="2526.5" x2="820" y2="2997.5" gradientUnits="userSpaceOnUse" spreadMethod="reflect" id="fill20"><stop offset="0" stop-color="#F6A9A5"/><stop offset="0.5" stop-color="#F39A96"/><stop offset="1" stop-color="#F58782"/></linearGradient><linearGradient x1="902.5" y1="2571.5" x2="902.5" y2="2997.5" gradientUnits="userSpaceOnUse" spreadMethod="reflect" id="fill21"><stop offset="0" stop-color="#F6A9A5"/><stop offset="0.5" stop-color="#F39A96"/><stop offset="1" stop-color="#F58782"/></linearGradient><linearGradient x1="985.5" y1="2685.5" x2="985.5" y2="2997.5" gradientUnits="userSpaceOnUse" spreadMethod="reflect" id="fill22"><stop offset="0" stop-color="#F6A9A5"/><stop offset="0.5" stop-color="#F39A96"/><stop offset="1" stop-color="#F58782"/></linearGradient><linearGradient x1="1068" y1="2843.5" x2="1068" y2="2997.5" gradientUnits="userSpaceOnUse" spreadMethod="reflect" id="fill23"><stop offset="0" stop-color="#F6A9A5"/><stop offset="0.5" stop-color="#F39A96"/><stop offset="1" stop-color="#F58782"/></linearGradient><linearGradient x1="1150.5" y1="2938.5" x2="1150.5" y2="2997.5" gradientUnits="userSpaceOnUse" spreadMethod="reflect" id="fill24"><stop offset="0" stop-color="#F6A9A5"/><stop offset="0.5" stop-color="#F39A96"/><stop offset="1" stop-color="#F58782"/></linearGradient><linearGradient x1="1233.5" y1="2971.5" x2="1233.5" y2="2997.5" gradientUnits="userSpaceOnUse" spreadMethod="reflect" id="fill25"><stop offset="0" stop-color="#F6A9A5"/><stop offset="0.5" stop-color="#F39A96"/><stop offset="1" stop-color="#F58782"/></linearGradient><linearGradient x1="1316" y1="2986.5" x2="1316" y2="2997.5" gradientUnits="userSpaceOnUse" spreadMethod="reflect" id="fill26"><stop offset="0" stop-color="#F6A9A5"/><stop offset="0.5" stop-color="#F39A96"/><stop offset="1" stop-color="#F58782"/></linearGradient><linearGradient x1="1427" y1="2740.5" x2="1427" y2="2761.5" gradientUnits="userSpaceOnUse" spreadMethod="reflect" id="fill27"><stop offset="0" stop-color="#AAC2FB"/><stop offset="0.5" stop-color="#9BB6F9"/><stop offset="1" stop-color="#88AAFD"/></linearGradient><linearGradient x1="1427" y1="2813.5" x2="1427" y2="2834.5" gradientUnits="userSpaceOnUse" spreadMethod="reflect" id="fill28"><stop offset="0" stop-color="#F6A9A5"/><stop offset="0.5" stop-color="#F39A96"/><stop offset="1" stop-color="#F58782"/></linearGradient></defs><g clip-path="url(#clip0)" transform="translate(1 -2225)"><rect x="0" y="2226" width="1637" height="1008" fill="#FFFFFF"/><g><path d="M270.5 2930.6 1345.5 2930.6M270.5 2862.59 1345.5 2862.59M270.5 2795.59 1345.5 2795.59M270.5 2728.59 1345.5 2728.59M270.5 2660.59 1345.5 2660.59M270.5 2593.59 1345.5 2593.59M270.5 2526.58 1345.5 2526.58M270.5 2458.58 1345.5 2458.58M270.5 2391.5 1345.5 2391.5" stroke="#D9D9D9" stroke-width="3.4375" stroke-linejoin="round" stroke-miterlimit="10" fill="none"/></g><g><rect x="288.5" y="2729.5" width="24.0001" height="268" stroke="#4082EF" stroke-width="3.4375" stroke-linejoin="round" stroke-miterlimit="10" fill="url(#fill1)"/></g><g><rect x="371.5" y="2529.5" width="23" height="468" stroke="#4082EF" stroke-width="3.4375" stroke-linejoin="round" stroke-miterlimit="10" fill="url(#fill2)"/></g><g><rect x="453.5" y="2468.5" width="24.0001" height="529" stroke="#4082EF" stroke-width="3.4375" stroke-linejoin="round" stroke-miterlimit="10" fill="url(#fill3)"/></g><g><rect x="536.5" y="2449.5" width="24.0001" height="548" stroke="#4082EF" stroke-width="3.4375" stroke-linejoin="round" stroke-miterlimit="10" fill="url(#fill4)"/></g><g><rect x="619.5" y="2447.5" width="23.0001" height="550" stroke="#4082EF" stroke-width="3.4375" stroke-linejoin="round" stroke-miterlimit="10" fill="url(#fill5)"/></g><g><rect x="701.5" y="2446.5" width="24.0001" height="551" stroke="#4082EF" stroke-width="3.4375" stroke-linejoin="round" stroke-miterlimit="10" fill="url(#fill6)"/></g><g><rect x="784.5" y="2453.5" width="24.0001" height="544" stroke="#4082EF" stroke-width="3.4375" stroke-linejoin="round" stroke-miterlimit="10" fill="url(#fill7)"/></g><g><rect x="867.5" y="2477.5" width="23.0001" height="520" stroke="#4082EF" stroke-width="3.4375" stroke-linejoin="round" stroke-miterlimit="10" fill="url(#fill8)"/></g><g><rect x="949.5" y="2556.5" width="24.0001" height="441" stroke="#4082EF" stroke-width="3.4375" stroke-linejoin="round" stroke-miterlimit="10" fill="url(#fill9)"/></g><g><rect x="1032.5" y="2699.5" width="23.9998" height="298" stroke="#4082EF" stroke-width="3.4375" stroke-linejoin="round" stroke-miterlimit="10" fill="url(#fill10)"/></g><g><rect x="1115.5" y="2870.5" width="23" height="127" stroke="#4082EF" stroke-width="3.4375" stroke-linejoin="round" stroke-miterlimit="10" fill="url(#fill11)"/></g><g><rect x="1197.5" y="2933.5" width="23.9998" height="64" stroke="#4082EF" stroke-width="3.4375" stroke-linejoin="round" stroke-miterlimit="10" fill="url(#fill12)"/></g><g><rect x="1280.5" y="2965.5" width="24.0001" height="32" stroke="#4082EF" stroke-width="3.4375" stroke-linejoin="round" stroke-miterlimit="10" fill="url(#fill13)"/></g><g><rect x="312.5" y="2705.5" width="23" height="292" stroke="#E54134" stroke-width="3.4375" stroke-linejoin="round" stroke-miterlimit="10" fill="url(#fill14)"/></g><g><rect x="394.5" y="2551.5" width="23.9997" height="446" stroke="#E54134" stroke-width="3.4375" stroke-linejoin="round" stroke-miterlimit="10" fill="url(#fill15)"/></g><g><rect x="477.5" y="2551.5" width="24.0001" height="446" stroke="#E54134" stroke-width="3.4375" stroke-linejoin="round" stroke-miterlimit="10" fill="url(#fill16)"/></g><g><rect x="560.5" y="2584.5" width="22.9997" height="413" stroke="#E54134" stroke-width="3.4375" stroke-linejoin="round" stroke-miterlimit="10" fill="url(#fill17)"/></g><g><rect x="642.5" y="2575.5" width="24.0001" height="422" stroke="#E54134" stroke-width="3.4375" stroke-linejoin="round" stroke-miterlimit="10" fill="url(#fill18)"/></g><g><rect x="725.5" y="2535.5" width="23.9997" height="462" stroke="#E54134" stroke-width="3.4375" stroke-linejoin="round" stroke-miterlimit="10" fill="url(#fill19)"/></g><g><rect x="808.5" y="2526.5" width="23.0001" height="471" stroke="#E54134" stroke-width="3.4375" stroke-linejoin="round" stroke-miterlimit="10" fill="url(#fill20)"/></g><g><rect x="890.5" y="2571.5" width="23.9997" height="426" stroke="#E54134" stroke-width="3.4375" stroke-linejoin="round" stroke-miterlimit="10" fill="url(#fill21)"/></g><g><rect x="973.5" y="2685.5" width="24.0001" height="312" stroke="#E54134" stroke-width="3.4375" stroke-linejoin="round" stroke-miterlimit="10" fill="url(#fill22)"/></g><g><rect x="1056.5" y="2843.5" width="23" height="154" stroke="#E54134" stroke-width="3.4375" stroke-linejoin="round" stroke-miterlimit="10" fill="url(#fill23)"/></g><g><rect x="1138.5" y="2938.5" width="24.0001" height="59.0002" stroke="#E54134" stroke-width="3.4375" stroke-linejoin="round" stroke-miterlimit="10" fill="url(#fill24)"/></g><g><rect x="1221.5" y="2971.5" width="24.0001" height="26.0002" stroke="#E54134" stroke-width="3.4375" stroke-linejoin="round" stroke-miterlimit="10" fill="url(#fill25)"/></g><g><rect x="1304.5" y="2986.5" width="23" height="11" stroke="#E54134" stroke-width="3.4375" stroke-linejoin="round" stroke-miterlimit="10" fill="url(#fill26)"/></g><g><path d="M270.5 2997.5 1345.5 2997.5" stroke="#D9D9D9" stroke-width="3.4375" stroke-linejoin="round" stroke-miterlimit="10" fill="none" fill-rule="evenodd"/></g><g><text fill="#7F7F7F" font-family="Arial,Arial_MSFontService,sans-serif" font-weight="400" font-size="41" transform="matrix(1 0 0 1 141.396 3010)">0.0%</text></g><g><text fill="#7F7F7F" font-family="Arial,Arial_MSFontService,sans-serif" font-weight="400" font-size="41" transform="matrix(1 0 0 1 118.456 2943)">10.0%</text></g><g><text fill="#7F7F7F" font-family="Arial,Arial_MSFontService,sans-serif" font-weight="400" font-size="41" transform="matrix(1 0 0 1 118.456 2876)">20.0%</text></g><g><text fill="#7F7F7F" font-family="Arial,Arial_MSFontService,sans-serif" font-weight="400" font-size="41" transform="matrix(1 0 0 1 118.456 2808)">30.0%</text></g><g><text fill="#7F7F7F" font-family="Arial,Arial_MSFontService,sans-serif" font-weight="400" font-size="41" transform="matrix(1 0 0 1 118.456 2741)">40.0%</text></g><g><text fill="#7F7F7F" font-family="Arial,Arial_MSFontService,sans-serif" font-weight="400" font-size="41" transform="matrix(1 0 0 1 118.456 2674)">50.0%</text></g><g><text fill="#7F7F7F" font-family="Arial,Arial_MSFontService,sans-serif" font-weight="400" font-size="41" transform="matrix(1 0 0 1 118.456 2606)">60.0%</text></g><g><text fill="#7F7F7F" font-family="Arial,Arial_MSFontService,sans-serif" font-weight="400" font-size="41" transform="matrix(1 0 0 1 118.456 2539)">70.0%</text></g><g><text fill="#7F7F7F" font-family="Arial,Arial_MSFontService,sans-serif" font-weight="400" font-size="41" transform="matrix(1 0 0 1 118.456 2472)">80.0%</text></g><g><text fill="#7F7F7F" font-family="Arial,Arial_MSFontService,sans-serif" font-weight="400" font-size="41" transform="matrix(1 0 0 1 118.456 2404)">90.0%</text></g><g><text fill="#7F7F7F" font-family="Arial,Arial_MSFontService,sans-serif" font-weight="400" font-size="41" transform="matrix(1 0 0 1 276.672 3059)">15 -</text></g><g><text fill="#7F7F7F" font-family="Arial,Arial_MSFontService,sans-serif" font-weight="400" font-size="41" transform="matrix(1 0 0 1 289.264 3107)">19</text></g><g><text fill="#7F7F7F" font-family="Arial,Arial_MSFontService,sans-serif" font-weight="400" font-size="41" transform="matrix(1 0 0 1 359.328 3059)">20 -</text></g><g><text fill="#7F7F7F" font-family="Arial,Arial_MSFontService,sans-serif" font-weight="400" font-size="41" transform="matrix(1 0 0 1 371.921 3107)">24</text></g><g><text fill="#7F7F7F" font-family="Arial,Arial_MSFontService,sans-serif" font-weight="400" font-size="41" transform="matrix(1 0 0 1 441.985 3059)">25 -</text></g><g><text fill="#7F7F7F" font-family="Arial,Arial_MSFontService,sans-serif" font-weight="400" font-size="41" transform="matrix(1 0 0 1 454.578 3107)">29</text></g><g><text fill="#7F7F7F" font-family="Arial,Arial_MSFontService,sans-serif" font-weight="400" font-size="41" transform="matrix(1 0 0 1 524.642 3059)">30 -</text></g><g><text fill="#7F7F7F" font-family="Arial,Arial_MSFontService,sans-serif" font-weight="400" font-size="41" transform="matrix(1 0 0 1 537.234 3107)">34</text></g><g><text fill="#7F7F7F" font-family="Arial,Arial_MSFontService,sans-serif" font-weight="400" font-size="41" transform="matrix(1 0 0 1 607.298 3059)">35 -</text></g><g><text fill="#7F7F7F" font-family="Arial,Arial_MSFontService,sans-serif" font-weight="400" font-size="41" transform="matrix(1 0 0 1 619.891 3107)">39</text></g><g><text fill="#7F7F7F" font-family="Arial,Arial_MSFontService,sans-serif" font-weight="400" font-size="41" transform="matrix(1 0 0 1 689.955 3059)">40 -</text></g><g><text fill="#7F7F7F" font-family="Arial,Arial_MSFontService,sans-serif" font-weight="400" font-size="41" transform="matrix(1 0 0 1 702.548 3107)">44</text></g><g><text fill="#7F7F7F" font-family="Arial,Arial_MSFontService,sans-serif" font-weight="400" font-size="41" transform="matrix(1 0 0 1 772.612 3059)">45 -</text></g><g><text fill="#7F7F7F" font-family="Arial,Arial_MSFontService,sans-serif" font-weight="400" font-size="41" transform="matrix(1 0 0 1 785.204 3107)">49</text></g><g><text fill="#7F7F7F" font-family="Arial,Arial_MSFontService,sans-serif" font-weight="400" font-size="41" transform="matrix(1 0 0 1 855.268 3059)">50 -</text></g><g><text fill="#7F7F7F" font-family="Arial,Arial_MSFontService,sans-serif" font-weight="400" font-size="41" transform="matrix(1 0 0 1 867.861 3107)">54</text></g><g><text fill="#7F7F7F" font-family="Arial,Arial_MSFontService,sans-serif" font-weight="400" font-size="41" transform="matrix(1 0 0 1 937.925 3059)">55 -</text></g><g><text fill="#7F7F7F" font-family="Arial,Arial_MSFontService,sans-serif" font-weight="400" font-size="41" transform="matrix(1 0 0 1 950.518 3107)">59</text></g><g><text fill="#7F7F7F" font-family="Arial,Arial_MSFontService,sans-serif" font-weight="400" font-size="41" transform="matrix(1 0 0 1 1020.58 3059)">60 -</text></g><g><text fill="#7F7F7F" font-family="Arial,Arial_MSFontService,sans-serif" font-weight="400" font-size="41" transform="matrix(1 0 0 1 1033.17 3107)">64</text></g><g><text fill="#7F7F7F" font-family="Arial,Arial_MSFontService,sans-serif" font-weight="400" font-size="41" transform="matrix(1 0 0 1 1103.24 3059)">65 -</text></g><g><text fill="#7F7F7F" font-family="Arial,Arial_MSFontService,sans-serif" font-weight="400" font-size="41" transform="matrix(1 0 0 1 1115.83 3107)">69</text></g><g><text fill="#7F7F7F" font-family="Arial,Arial_MSFontService,sans-serif" font-weight="400" font-size="41" transform="matrix(1 0 0 1 1185.9 3059)">70 -</text></g><g><text fill="#7F7F7F" font-family="Arial,Arial_MSFontService,sans-serif" font-weight="400" font-size="41" transform="matrix(1 0 0 1 1198.49 3107)">74</text></g><g><text fill="#7F7F7F" font-family="Arial,Arial_MSFontService,sans-serif" font-weight="400" font-size="41" transform="matrix(1 0 0 1 1269.1 3059)">&gt;75</text></g><g><text fill="#7F7F7F" font-family="Arial,Arial_MSFontService,sans-serif" font-weight="400" font-size="41" transform="matrix(6.12323e-17 -1 1 6.12323e-17 96.2958 2833)">% EMPLOYED</text></g><g><text fill="#7F7F7F" font-family="Arial,Arial_MSFontService,sans-serif" font-weight="400" font-size="41" transform="matrix(1 0 0 1 764.579 3169)">AGE</text></g><g><text fill="#7F7F7F" font-family="Arial,Arial_MSFontService,sans-serif" font-weight="400" font-size="64" transform="matrix(1 0 0 1 197.266 2320)">Proportion employed by age by sex </text></g><g><text fill="#7F7F7F" font-family="Arial,Arial_MSFontService,sans-serif" font-weight="400" font-size="64" transform="matrix(1 0 0 1 1252.03 2320)">-</text></g><g><text fill="#7F7F7F" font-family="Arial,Arial_MSFontService,sans-serif" font-weight="400" font-size="64" transform="matrix(1 0 0 1 1293.05 2320)">2001</text></g><g><rect x="1416.5" y="2740.5" width="21" height="21" stroke="#4082EF" stroke-width="3.4375" stroke-linejoin="round" stroke-miterlimit="10" fill="url(#fill27)"/></g><g><text fill="#7F7F7F" font-family="Arial,Arial_MSFontService,sans-serif" font-weight="400" font-size="41" transform="matrix(1 0 0 1 1445.88 2764)">males</text></g><g><rect x="1416.5" y="2813.5" width="21" height="21" stroke="#E54134" stroke-width="3.4375" stroke-linejoin="round" stroke-miterlimit="10" fill="url(#fill28)"/></g><g><text fill="#7F7F7F" font-family="Arial,Arial_MSFontService,sans-serif" font-weight="400" font-size="41" transform="matrix(1 0 0 1 1445.88 2837)">females</text></g><rect x="0.499836" y="2226.5" width="1637" height="1008" stroke="#D9D9D9" stroke-width="3.4375" stroke-linejoin="round" stroke-miterlimit="10" fill="none"/></g></svg>